<?xml version="1.0" standalone="no"?>
 <!DOCTYPE svg PUBLIC "-//W3C//DTD SVG 1.1//EN" 
 "http://www.w3.org/Graphics/SVG/1.1/DTD/svg11.dtd"> 
<svg
  xmlns:svg="http://www.w3.org/2000/svg"
  xmlns="http://www.w3.org/2000/svg"
  xmlns:xlink="http://www.w3.org/1999/xlink"
  version="1.1"
  width="27.5590mm" height="20.9804mm" viewBox="0.0000 0.0000 27.5590 20.9804">
<title>SVG Image created as GAL_v3-B_Cu.svg date 2025/05/06 01:41:47 </title>
  <desc>Image generated by PCBNEW </desc>
<g style="fill:#000000; fill-opacity:1.0000;stroke:#000000; stroke-opacity:1.0000;
stroke-linecap:round; stroke-linejoin:round;"
 transform="translate(0 0) scale(1 1)">
</g>
<g style="fill:#000000; fill-opacity:0.0; 
stroke:#000000; stroke-width:0.0000; stroke-opacity:1; 
stroke-linecap:round; stroke-linejoin:round;">
</g>
<g style="fill:#000000; fill-opacity:0.0; 
stroke:#000000; stroke-width:0.0000; stroke-opacity:1; 
stroke-linecap:round; stroke-linejoin:round;">
</g>
<g style="fill:#000000; fill-opacity:1.0000; 
stroke:#000000; stroke-width:0.0000; stroke-opacity:1; 
stroke-linecap:round; stroke-linejoin:round;">
<path style="fill:#000000; fill-opacity:1.0000; 
stroke:#000000; stroke-width:0.0000; stroke-opacity:1; 
stroke-linecap:round; stroke-linejoin:round;fill-rule:evenodd;"
d="M 16.1685,19.5435
14.8185,19.5435
14.8185,18.1935
16.1685,18.1935
Z" /> 
<circle cx="15.4935" cy="16.8685" r="0.6750" /> 
<circle cx="17.4935" cy="18.8685" r="0.6750" /> 
<circle cx="17.4935" cy="16.8685" r="0.6750" /> 
<circle cx="19.4935" cy="18.8685" r="0.6750" /> 
<circle cx="19.4935" cy="16.8685" r="0.6750" /> 
<circle cx="6.6195" cy="19.1225" r="0.2500" /> 
<circle cx="7.2334" cy="14.0028" r="0.2500" /> 
<circle cx="7.7625" cy="6.9305" r="0.2500" /> 
<circle cx="9.9215" cy="4.1365" r="0.2500" /> 
<circle cx="11.0645" cy="10.8675" r="0.2500" /> 
<circle cx="15.1285" cy="10.8675" r="0.2500" /> 
<circle cx="0.7615" cy="6.1685" r="0.2500" /> 
<circle cx="11.0645" cy="13.4075" r="0.2500" /> 
<circle cx="5.7305" cy="6.8035" r="0.2500" /> 
<circle cx="17.2715" cy="12.0105" r="0.2500" /> 
<circle cx="13.8585" cy="6.9305" r="0.2500" /> 
<circle cx="17.0175" cy="13.9695" r="0.2500" /> 
<circle cx="19.8115" cy="15.1855" r="0.2500" /> 
<circle cx="20.8275" cy="15.2395" r="0.2500" /> 
<circle cx="25.9075" cy="10.1595" r="0.2500" /> 
<circle cx="4.7145" cy="6.8035" r="0.2500" /> 
<circle cx="9.9215" cy="8.3275" r="0.2500" /> 
<circle cx="9.9215" cy="9.8515" r="0.2500" /> 
<circle cx="10.6835" cy="9.0895" r="0.2500" /> 
<circle cx="10.6835" cy="8.3275" r="0.2500" /> 
<circle cx="9.9215" cy="9.0895" r="0.2500" /> 
<circle cx="9.9215" cy="7.5655" r="0.2500" /> 
<circle cx="10.6835" cy="7.5655" r="0.2500" /> 
<circle cx="10.6835" cy="9.8515" r="0.2500" /> 
<path style="fill:#000000; fill-opacity:1.0000; 
stroke:#000000; stroke-width:0.0000; stroke-opacity:1; 
stroke-linecap:round; stroke-linejoin:round;fill-rule:evenodd;"
d="M 27.5130,0.0197
27.5588,0.0725
27.5700,0.1240
27.5700,16.1564
27.5503,16.2234
27.4975,16.2692
27.4460,16.2804
24.5254,16.2804
24.5168,16.2794
24.5102,16.2804
24.5058,16.2847
24.5016,16.2923
21.1184,20.9479
21.0631,20.9906
21.0181,20.9990
0.1240,20.9990
0.0570,20.9793
0.0112,20.9265
0.0000,20.8750
0.0000,18.8900
0.9115,18.8900
0.9411,19.1593
0.9411,19.1593
1.0096,19.4213
1.1156,19.6706
1.1905,19.7935
1.2567,19.9018
1.2567,19.9018
1.4299,20.1100
1.4299,20.1101
1.6317,20.2908
1.8576,20.4403
2.1029,20.5552
2.1029,20.5553
2.1029,20.5553
2.3622,20.6333
2.3623,20.6333
2.6302,20.6727
2.6303,20.6727
2.8333,20.6727
2.8848,20.6690
3.0358,20.6579
3.1484,20.6328
3.3002,20.5990
3.3002,20.5990
3.5532,20.5023
3.7895,20.3697
4.0039,20.2041
4.1919,20.0091
4.3495,19.7888
4.4480,19.5971
4.4733,19.5479
4.4733,19.5479
4.5608,19.2915
4.6100,19.0252
4.6199,18.7545
4.5903,18.4852
4.5218,18.2232
4.4158,17.9738
4.2747,17.7426
4.2146,17.6704
4.1014,17.5344
4.1014,17.5344
3.8997,17.3536
3.6738,17.2042
3.4285,17.0892
3.4285,17.0892
3.1691,17.0112
3.1691,17.0112
3.0535,16.9941
2.9011,16.9717
2.6981,16.9717
2.4955,16.9866
2.4955,16.9866
2.2311,17.0454
1.9781,17.1422
1.7419,17.2748
1.5275,17.4403
1.3395,17.6353
1.3395,17.6353
1.1819,17.8557
1.1819,17.8557
1.0580,18.0965
1.0580,18.0966
0.9706,18.3529
0.9706,18.3529
0.9214,18.6193
0.9214,18.6193
0.9115,18.8900
0.0000,18.8900
0.0000,16.8685
14.4630,16.8685
14.4828,17.0695
14.5415,17.2629
14.6367,17.4410
14.6367,17.4410
14.7553,17.5856
14.7648,17.5971
14.9032,17.7106
14.9190,17.7236
14.9583,17.7814
14.9602,17.8512
14.9240,17.9110
14.8613,17.9417
14.8403,17.9435
14.7939,17.9435
14.7210,17.9580
14.7210,17.9580
14.6383,18.0133
14.5830,18.0960
14.5830,18.0960
14.5685,18.1689
14.5685,18.6185
14.9829,18.6185
15.0500,18.6382
15.0957,18.6910
15.1057,18.7601
15.1054,18.7619
15.0885,18.8685
15.1054,18.9751
15.0964,19.0444
15.0514,19.0978
14.9847,19.1185
14.9829,19.1185
14.5685,19.1185
14.5685,19.5681
14.5830,19.6410
14.5830,19.6410
14.6383,19.7237
14.7210,19.7790
14.7210,19.7790
14.7939,19.7935
15.2435,19.7935
15.2435,19.3791
15.2632,19.3120
15.3160,19.2663
15.3851,19.2563
15.3868,19.2566
15.4192,19.2617
15.4620,19.2685
15.5250,19.2685
15.5678,19.2617
15.6001,19.2566
15.6694,19.2656
15.7228,19.3105
15.7435,19.3773
15.7435,19.3791
15.7435,19.7935
16.1931,19.7935
16.2660,19.7790
16.2660,19.7790
16.3487,19.7237
16.4040,19.6410
16.4040,19.6410
16.4185,19.5681
16.4185,19.5217
16.4382,19.4546
16.4910,19.4089
16.5602,19.3989
16.6237,19.4280
16.6383,19.4430
16.7648,19.5971
16.9210,19.7253
17.0991,19.8205
17.0992,19.8205
17.2925,19.8792
17.4935,19.8990
17.6945,19.8792
17.8878,19.8205
18.0660,19.7253
18.2221,19.5971
18.3503,19.4410
18.3573,19.4280
18.3841,19.3777
18.4331,19.3278
18.5012,19.3124
18.5669,19.3362
18.6029,19.3777
18.6367,19.4410
18.6367,19.4410
18.7648,19.5971
18.8544,19.6706
18.9210,19.7253
19.0991,19.8205
19.0992,19.8205
19.2925,19.8792
19.4935,19.8990
19.6945,19.8792
19.8878,19.8205
20.0660,19.7253
20.2221,19.5971
20.3503,19.4410
20.4455,19.2628
20.5042,19.0695
20.5240,18.8685
20.5042,18.6675
20.4945,18.6355
20.4938,18.5656
20.5254,18.5118
21.1194,17.9179
21.1401,17.9012
21.1434,17.8991
21.1758,17.8618
21.1788,17.8585
21.1816,17.8557
21.1893,17.8480
21.1982,17.8361
21.2010,17.8327
21.2333,17.7953
21.2350,17.7917
21.2485,17.7689
21.2509,17.7657
21.2682,17.7194
21.2699,17.7153
21.2904,17.6704
21.2909,17.6665
21.2975,17.6408
21.2989,17.6370
21.3024,17.5878
21.3029,17.5834
21.3050,17.5686
21.3050,17.5538
21.3052,17.5493
21.3062,17.5344
21.3087,17.5001
21.3078,17.4962
21.3050,17.4698
21.3050,15.6457
21.3247,15.5787
21.3306,15.5702
21.3520,15.5423
21.4125,15.3963
21.4332,15.2395
21.4125,15.0827
21.3520,14.9367
21.2558,14.8112
21.1303,14.7150
20.9843,14.6545
20.8275,14.6338
20.6707,14.6545
20.5247,14.7150
20.4233,14.7927
20.3582,14.8179
20.2897,14.8039
20.2495,14.7698
20.2398,14.7572
20.1847,14.7150
20.1143,14.6610
20.0986,14.6545
20.0488,14.6338
19.9683,14.6005
19.9514,14.5982
19.9334,14.5959
19.8695,14.5676
19.8619,14.5606
18.7249,13.4236
18.7082,13.4029
18.7061,13.3996
18.6688,13.3672
18.6655,13.3642
18.6550,13.3537
18.6550,13.3537
18.6431,13.3448
18.6396,13.3420
18.6023,13.3097
18.5987,13.3080
18.5759,13.2945
18.5727,13.2921
18.5264,13.2748
18.5223,13.2731
18.4774,13.2526
18.4735,13.2521
18.4478,13.2455
18.4440,13.2441
18.3948,13.2406
18.3904,13.2401
18.3757,13.2380
18.3757,13.2380
18.3608,13.2380
18.3563,13.2378
18.3542,13.2377
18.3071,13.2343
18.3071,13.2343
18.3032,13.2352
18.2768,13.2380
17.3362,13.2380
17.3098,13.2352
17.3059,13.2343
17.3059,13.2343
17.2587,13.2377
17.2567,13.2378
17.2522,13.2380
17.2373,13.2380
17.2226,13.2401
17.2182,13.2406
17.1690,13.2441
17.1652,13.2455
17.1396,13.2521
17.1356,13.2526
17.1356,13.2526
17.0907,13.2731
17.0866,13.2748
17.0403,13.2921
17.0371,13.2945
17.0143,13.3080
17.0107,13.3097
16.9734,13.3420
16.9699,13.3448
16.9549,13.3560
16.8968,13.3797
16.8913,13.3804
16.8223,13.3697
16.7700,13.3233
16.7512,13.2560
16.7716,13.1892
16.7875,13.1698
17.3219,12.6354
17.3832,12.6019
17.3933,12.6001
17.4283,12.5955
17.5743,12.5350
17.6998,12.4388
17.7960,12.3133
17.8565,12.1673
17.8772,12.0105
17.8705,11.9601
17.8565,11.8537
17.7960,11.7077
17.6998,11.5822
17.5743,11.4860
17.4283,11.4255
17.2715,11.4048
17.1147,11.4255
16.9687,11.4860
16.8432,11.5822
16.7470,11.7077
16.6865,11.8537
16.6819,11.8886
16.6536,11.9525
16.6466,11.9601
15.2016,13.4051
15.1809,13.4218
15.1776,13.4239
15.1776,13.4239
15.1453,13.4612
15.1422,13.4645
15.1317,13.4750
15.1228,13.4869
15.1200,13.4904
15.0877,13.5277
15.0877,13.5277
15.0860,13.5313
15.0725,13.5541
15.0701,13.5573
15.0701,13.5573
15.0528,13.6036
15.0511,13.6077
15.0306,13.6526
15.0306,13.6526
15.0301,13.6565
15.0235,13.6822
15.0221,13.6860
15.0186,13.7352
15.0181,13.7396
15.0160,13.7543
15.0160,13.7692
15.0158,13.7736
15.0123,13.8229
15.0132,13.8268
15.0160,13.8532
15.0160,15.8866
14.9963,15.9536
14.9505,15.9960
14.9210,16.0117
14.7648,16.1398
14.6367,16.2960
14.6367,16.2960
14.5415,16.4741
14.4828,16.6675
14.4630,16.8685
0.0000,16.8685
0.0000,6.8035
4.1088,6.8035
4.1295,6.9603
4.1816,7.0862
4.1900,7.1063
4.2862,7.2318
4.4117,7.3280
4.5577,7.3885
4.6361,7.3989
4.7145,7.4092
4.7668,7.4023
4.8713,7.3885
5.0173,7.3280
5.1428,7.2318
5.1470,7.2285
5.2122,7.2033
5.2806,7.2174
5.2980,7.2285
5.3022,7.2318
5.4277,7.3280
5.5737,7.3885
5.6521,7.3989
5.7305,7.4092
5.7828,7.4023
5.8873,7.3885
6.0333,7.3280
6.1588,7.2318
6.2550,7.1063
6.3155,6.9603
6.3167,6.9575
6.3605,6.9031
6.4268,6.8811
6.4312,6.8810
9.2343,6.8810
9.3014,6.9007
9.3471,6.9535
9.3571,7.0226
9.3280,7.0862
9.3213,7.0934
9.2753,7.1386
9.2213,7.2425
9.2024,7.3006
9.1981,7.3280
9.1850,7.4105
9.1850,10.0065
9.1894,10.0621
9.1942,10.0927
9.2055,10.1413
9.2577,10.2460
9.2577,10.2461
9.2937,10.2955
9.2937,10.2956
9.3676,10.3707
9.3676,10.3707
9.4715,10.4247
9.4715,10.4247
9.5296,10.4436
9.5297,10.4436
9.6395,10.4610
16.0455,10.4610
16.1011,10.4566
16.1011,10.4566
16.1317,10.4518
16.1706,10.4428
16.1803,10.4405
16.2850,10.3883
16.3346,10.3523
16.4097,10.2784
16.4637,10.1745
16.4826,10.1163
16.5000,10.0065
16.5000,7.5320
16.5197,7.4650
16.5725,7.4192
16.6240,7.4080
20.9753,7.4080
21.0424,7.4277
21.0630,7.4443
24.8857,11.2670
24.9192,11.3283
24.9220,11.3546
24.9220,11.7853
24.9023,11.8523
24.8964,11.8607
24.8750,11.8887
24.8145,12.0347
24.7938,12.1915
24.8145,12.3483
24.8750,12.4943
24.9712,12.6198
25.0967,12.7160
25.2427,12.7765
25.3211,12.7869
25.3995,12.7972
25.4518,12.7903
25.5563,12.7765
25.7023,12.7160
25.8278,12.6198
25.8320,12.6165
25.8972,12.5913
25.9656,12.6054
25.9830,12.6165
25.9872,12.6198
26.1127,12.7160
26.2587,12.7765
26.3371,12.7869
26.4155,12.7972
26.4677,12.7903
26.5723,12.7765
26.7183,12.7160
26.8438,12.6198
26.9400,12.4943
27.0005,12.3483
27.0212,12.1915
27.0005,12.0347
26.9400,11.8887
26.9166,11.8582
26.8914,11.7930
26.8910,11.7827
26.8910,10.5381
26.8923,10.5204
26.8934,10.5123
26.8940,10.5084
26.9005,10.4827
26.9019,10.4791
26.9054,10.4300
26.9059,10.4256
26.9080,10.4110
26.9080,10.3962
26.9082,10.3917
26.9084,10.3883
26.9117,10.3427
26.9108,10.3388
26.9080,10.3125
26.9080,9.4985
26.9108,9.4721
26.9117,9.4683
26.9082,9.4192
26.9080,9.4148
26.9080,9.4000
26.9080,9.4000
26.9059,9.3854
26.9054,9.3810
26.9019,9.3319
26.9005,9.3283
26.8940,9.3026
26.8934,9.2987
26.8730,9.2539
26.8713,9.2499
26.8541,9.2038
26.8518,9.2007
26.8383,9.1779
26.8366,9.1743
26.8044,9.1372
26.8016,9.1337
26.7928,9.1219
26.7928,9.1219
26.7823,9.1114
26.7793,9.1082
26.7471,9.0710
26.7438,9.0689
26.7232,9.0522
23.2218,5.5508
23.2051,5.5302
23.2030,5.5269
23.2030,5.5269
23.1658,5.4947
23.1626,5.4917
23.1521,5.4812
23.1403,5.4723
23.1368,5.4696
23.0997,5.4374
23.0961,5.4357
23.0733,5.4222
23.0702,5.4199
23.0241,5.4027
23.0200,5.4010
22.9753,5.3806
22.9753,5.3806
22.9714,5.3800
22.9458,5.3735
22.9421,5.3721
22.9421,5.3721
22.9342,5.3715
22.8930,5.3686
22.8886,5.3681
22.8740,5.3660
22.8740,5.3660
22.8592,5.3660
22.8547,5.3658
22.8057,5.3623
22.8038,5.3627
22.8019,5.3632
22.7755,5.3660
5.7409,5.3660
5.7146,5.3632
5.7108,5.3623
5.6741,5.3649
5.6617,5.3658
5.6573,5.3660
5.6425,5.3660
5.6278,5.3681
5.6234,5.3686
5.5744,5.3721
5.5744,5.3721
5.5707,5.3735
5.5450,5.3800
5.5412,5.3806
5.4964,5.4010
5.4923,5.4027
5.4778,5.4081
5.4463,5.4199
5.4431,5.4222
5.4204,5.4357
5.4168,5.4374
5.3796,5.4696
5.3762,5.4723
5.3685,5.4781
5.3643,5.4812
5.3643,5.4812
5.3538,5.4917
5.3506,5.4947
5.3134,5.5269
5.3113,5.5302
5.2947,5.5508
4.6674,6.1782
4.6060,6.2117
4.5959,6.2134
4.5577,6.2185
4.4117,6.2790
4.2862,6.3752
4.1900,6.5007
4.1295,6.6467
4.1088,6.8035
0.0000,6.8035
0.0000,3.0613
11.3693,3.0613
11.3989,3.3305
11.3989,3.3305
11.4674,3.5926
11.4674,3.5926
11.5734,3.8419
11.6455,3.9601
11.7145,4.0731
11.7145,4.0731
11.8877,4.2813
11.8878,4.2813
12.0895,4.4621
12.3154,4.6115
12.5607,4.7265
12.5607,4.7265
12.8201,4.8046
12.8201,4.8046
13.0881,4.8440
13.0881,4.8440
13.2911,4.8440
13.3426,4.8402
13.4937,4.8292
13.6063,4.8041
13.7580,4.7703
14.0111,4.6735
14.2473,4.5409
14.4617,4.3754
14.6497,4.1804
14.8073,3.9601
14.8813,3.8162
14.9311,3.7192
14.9311,3.7192
14.9312,3.7192
15.0186,3.4628
15.0678,3.1964
15.0777,2.9257
15.0481,2.6565
14.9796,2.3944
14.8736,2.1451
14.7325,1.9139
14.6433,1.8066
14.5592,1.7057
14.5592,1.7057
14.3575,1.5249
14.1316,1.3755
13.8863,1.2605
13.8863,1.2605
13.6269,1.1824
13.6269,1.1824
13.5113,1.1654
13.3589,1.1430
13.1559,1.1430
13.1559,1.1430
12.9533,1.1578
12.9533,1.1578
12.6890,1.2167
12.4359,1.3135
12.1997,1.4461
11.9853,1.6116
11.7973,1.8066
11.7973,1.8066
11.6397,2.0269
11.5159,2.2678
11.5158,2.2678
11.4284,2.5242
11.4284,2.5242
11.3792,2.7906
11.3792,2.7906
11.3693,3.0613
0.0000,3.0613
0.0000,0.1240
0.0197,0.0570
0.0725,0.0112
0.1240,0.0000
27.4460,0.0000
Z" /> 
<path style="fill:#000000; fill-opacity:1.0000; 
stroke:#000000; stroke-width:0.0000; stroke-opacity:1; 
stroke-linecap:round; stroke-linejoin:round;fill-rule:evenodd;"
d="M 12.7155,10.1055
9.6395,10.1055
9.5813,10.0866
9.5453,10.0371
9.5405,10.0065
9.5405,7.4105
9.5594,7.3523
9.6089,7.3163
9.6395,7.3115
12.7155,7.3115
Z" /> 
<path style="fill:#000000; fill-opacity:1.0000; 
stroke:#000000; stroke-width:0.0000; stroke-opacity:1; 
stroke-linecap:round; stroke-linejoin:round;fill-rule:evenodd;"
d="M 13.6425,7.3272
13.6694,7.3445
13.7937,7.3810
13.9233,7.3810
14.0476,7.3445
14.0745,7.3272
14.1280,7.3115
16.0455,7.3115
16.1037,7.3304
16.1397,7.3799
16.1445,7.4105
16.1445,10.0065
16.1256,10.0647
16.0761,10.1007
16.0455,10.1055
12.7155,10.1055
9.6395,10.1055
9.5813,10.0866
9.5453,10.0371
9.5405,10.0065
9.5405,7.4105
9.5594,7.3523
9.6089,7.3163
9.6395,7.3115
13.5890,7.3115
Z" /> 
<g >
<circle cx="2.7656" cy="18.8234" r="1.6002" /> 
</g>
<g style="fill:#000000; fill-opacity:1.0000; 
stroke:#000000; stroke-width:0.0212; stroke-opacity:1; 
stroke-linecap:round; stroke-linejoin:round;">
</g>
<g style="fill:#000000; fill-opacity:1.0000; 
stroke:#000000; stroke-width:0.0000; stroke-opacity:1; 
stroke-linecap:round; stroke-linejoin:round;">
<circle cx="13.2227" cy="2.9942" r="1.6002" /> 
</g>
<g style="fill:#000000; fill-opacity:1.0000; 
stroke:#000000; stroke-width:0.0212; stroke-opacity:1; 
stroke-linecap:round; stroke-linejoin:round;">
</g>
<g style="fill:#000000; fill-opacity:1.0000; 
stroke:#000000; stroke-width:0.0000; stroke-opacity:1; 
stroke-linecap:round; stroke-linejoin:round;">
<circle cx="0.7615" cy="6.1692" r="0.1499" /> 
</g>
<g style="fill:#000000; fill-opacity:1.0000; 
stroke:#000000; stroke-width:0.0212; stroke-opacity:1; 
stroke-linecap:round; stroke-linejoin:round;">
</g>
<g style="fill:#000000; fill-opacity:1.0000; 
stroke:#000000; stroke-width:0.0000; stroke-opacity:1; 
stroke-linecap:round; stroke-linejoin:round;">
<circle cx="0.7615" cy="10.4135" r="0.2500" /> 
</g>
<g style="fill:#000000; fill-opacity:1.0000; 
stroke:#000000; stroke-width:0.0212; stroke-opacity:1; 
stroke-linecap:round; stroke-linejoin:round;">
</g>
<g style="fill:#000000; fill-opacity:1.0000; 
stroke:#000000; stroke-width:0.0000; stroke-opacity:1; 
stroke-linecap:round; stroke-linejoin:round;">
<circle cx="4.5715" cy="17.2715" r="0.2500" /> 
</g>
<g style="fill:#000000; fill-opacity:1.0000; 
stroke:#000000; stroke-width:0.0212; stroke-opacity:1; 
stroke-linecap:round; stroke-linejoin:round;">
</g>
<g style="fill:#000000; fill-opacity:1.0000; 
stroke:#000000; stroke-width:0.0000; stroke-opacity:1; 
stroke-linecap:round; stroke-linejoin:round;">
<circle cx="4.7137" cy="6.8042" r="0.1499" /> 
</g>
<g style="fill:#000000; fill-opacity:1.0000; 
stroke:#000000; stroke-width:0.0212; stroke-opacity:1; 
stroke-linecap:round; stroke-linejoin:round;">
</g>
<g style="fill:#000000; fill-opacity:1.0000; 
stroke:#000000; stroke-width:0.0000; stroke-opacity:1; 
stroke-linecap:round; stroke-linejoin:round;">
<circle cx="5.7297" cy="6.8042" r="0.1499" /> 
</g>
<g style="fill:#000000; fill-opacity:1.0000; 
stroke:#000000; stroke-width:0.0212; stroke-opacity:1; 
stroke-linecap:round; stroke-linejoin:round;">
</g>
<g style="fill:#000000; fill-opacity:1.0000; 
stroke:#000000; stroke-width:0.0000; stroke-opacity:1; 
stroke-linecap:round; stroke-linejoin:round;">
<circle cx="6.6187" cy="19.1232" r="0.1499" /> 
</g>
<g style="fill:#000000; fill-opacity:1.0000; 
stroke:#000000; stroke-width:0.0212; stroke-opacity:1; 
stroke-linecap:round; stroke-linejoin:round;">
</g>
<g style="fill:#000000; fill-opacity:1.0000; 
stroke:#000000; stroke-width:0.0000; stroke-opacity:1; 
stroke-linecap:round; stroke-linejoin:round;">
<circle cx="7.1115" cy="11.4295" r="0.2500" /> 
</g>
<g style="fill:#000000; fill-opacity:1.0000; 
stroke:#000000; stroke-width:0.0212; stroke-opacity:1; 
stroke-linecap:round; stroke-linejoin:round;">
</g>
<g style="fill:#000000; fill-opacity:1.0000; 
stroke:#000000; stroke-width:0.0000; stroke-opacity:1; 
stroke-linecap:round; stroke-linejoin:round;">
<circle cx="7.2334" cy="14.0025" r="0.1499" /> 
</g>
<g style="fill:#000000; fill-opacity:1.0000; 
stroke:#000000; stroke-width:0.0212; stroke-opacity:1; 
stroke-linecap:round; stroke-linejoin:round;">
</g>
<g style="fill:#000000; fill-opacity:1.0000; 
stroke:#000000; stroke-width:0.0000; stroke-opacity:1; 
stroke-linecap:round; stroke-linejoin:round;">
<circle cx="7.7617" cy="6.9312" r="0.1499" /> 
</g>
<g style="fill:#000000; fill-opacity:1.0000; 
stroke:#000000; stroke-width:0.0212; stroke-opacity:1; 
stroke-linecap:round; stroke-linejoin:round;">
</g>
<g style="fill:#000000; fill-opacity:1.0000; 
stroke:#000000; stroke-width:0.0000; stroke-opacity:1; 
stroke-linecap:round; stroke-linejoin:round;">
<circle cx="9.9207" cy="4.1372" r="0.1499" /> 
</g>
<g style="fill:#000000; fill-opacity:1.0000; 
stroke:#000000; stroke-width:0.0212; stroke-opacity:1; 
stroke-linecap:round; stroke-linejoin:round;">
</g>
<g style="fill:#000000; fill-opacity:1.0000; 
stroke:#000000; stroke-width:0.0000; stroke-opacity:1; 
stroke-linecap:round; stroke-linejoin:round;">
<circle cx="9.9207" cy="7.5662" r="0.1499" /> 
</g>
<g style="fill:#000000; fill-opacity:1.0000; 
stroke:#000000; stroke-width:0.0212; stroke-opacity:1; 
stroke-linecap:round; stroke-linejoin:round;">
</g>
<g style="fill:#000000; fill-opacity:1.0000; 
stroke:#000000; stroke-width:0.0000; stroke-opacity:1; 
stroke-linecap:round; stroke-linejoin:round;">
<circle cx="9.9207" cy="8.3282" r="0.1499" /> 
</g>
<g style="fill:#000000; fill-opacity:1.0000; 
stroke:#000000; stroke-width:0.0212; stroke-opacity:1; 
stroke-linecap:round; stroke-linejoin:round;">
</g>
<g style="fill:#000000; fill-opacity:1.0000; 
stroke:#000000; stroke-width:0.0000; stroke-opacity:1; 
stroke-linecap:round; stroke-linejoin:round;">
<circle cx="9.9207" cy="9.0902" r="0.1499" /> 
</g>
<g style="fill:#000000; fill-opacity:1.0000; 
stroke:#000000; stroke-width:0.0212; stroke-opacity:1; 
stroke-linecap:round; stroke-linejoin:round;">
</g>
<g style="fill:#000000; fill-opacity:1.0000; 
stroke:#000000; stroke-width:0.0000; stroke-opacity:1; 
stroke-linecap:round; stroke-linejoin:round;">
<circle cx="9.9207" cy="9.8522" r="0.1499" /> 
</g>
<g style="fill:#000000; fill-opacity:1.0000; 
stroke:#000000; stroke-width:0.0212; stroke-opacity:1; 
stroke-linecap:round; stroke-linejoin:round;">
</g>
<g style="fill:#000000; fill-opacity:1.0000; 
stroke:#000000; stroke-width:0.0000; stroke-opacity:1; 
stroke-linecap:round; stroke-linejoin:round;">
<circle cx="10.6827" cy="7.5662" r="0.1499" /> 
</g>
<g style="fill:#000000; fill-opacity:1.0000; 
stroke:#000000; stroke-width:0.0212; stroke-opacity:1; 
stroke-linecap:round; stroke-linejoin:round;">
</g>
<g style="fill:#000000; fill-opacity:1.0000; 
stroke:#000000; stroke-width:0.0000; stroke-opacity:1; 
stroke-linecap:round; stroke-linejoin:round;">
<circle cx="10.6827" cy="8.3282" r="0.1499" /> 
</g>
<g style="fill:#000000; fill-opacity:1.0000; 
stroke:#000000; stroke-width:0.0212; stroke-opacity:1; 
stroke-linecap:round; stroke-linejoin:round;">
</g>
<g style="fill:#000000; fill-opacity:1.0000; 
stroke:#000000; stroke-width:0.0000; stroke-opacity:1; 
stroke-linecap:round; stroke-linejoin:round;">
<circle cx="10.6827" cy="9.0902" r="0.1499" /> 
</g>
<g style="fill:#000000; fill-opacity:1.0000; 
stroke:#000000; stroke-width:0.0212; stroke-opacity:1; 
stroke-linecap:round; stroke-linejoin:round;">
</g>
<g style="fill:#000000; fill-opacity:1.0000; 
stroke:#000000; stroke-width:0.0000; stroke-opacity:1; 
stroke-linecap:round; stroke-linejoin:round;">
<circle cx="10.6827" cy="9.8522" r="0.1499" /> 
</g>
<g style="fill:#000000; fill-opacity:1.0000; 
stroke:#000000; stroke-width:0.0212; stroke-opacity:1; 
stroke-linecap:round; stroke-linejoin:round;">
</g>
<g style="fill:#000000; fill-opacity:1.0000; 
stroke:#000000; stroke-width:0.0000; stroke-opacity:1; 
stroke-linecap:round; stroke-linejoin:round;">
<circle cx="11.0637" cy="10.8682" r="0.1499" /> 
</g>
<g style="fill:#000000; fill-opacity:1.0000; 
stroke:#000000; stroke-width:0.0212; stroke-opacity:1; 
stroke-linecap:round; stroke-linejoin:round;">
</g>
<g style="fill:#000000; fill-opacity:1.0000; 
stroke:#000000; stroke-width:0.0000; stroke-opacity:1; 
stroke-linecap:round; stroke-linejoin:round;">
<circle cx="11.0637" cy="13.4082" r="0.1499" /> 
</g>
<g style="fill:#000000; fill-opacity:1.0000; 
stroke:#000000; stroke-width:0.0212; stroke-opacity:1; 
stroke-linecap:round; stroke-linejoin:round;">
</g>
<g style="fill:#000000; fill-opacity:1.0000; 
stroke:#000000; stroke-width:0.0000; stroke-opacity:1; 
stroke-linecap:round; stroke-linejoin:round;">
<circle cx="13.4615" cy="19.5575" r="0.2500" /> 
</g>
<g style="fill:#000000; fill-opacity:1.0000; 
stroke:#000000; stroke-width:0.0212; stroke-opacity:1; 
stroke-linecap:round; stroke-linejoin:round;">
</g>
<g style="fill:#000000; fill-opacity:1.0000; 
stroke:#000000; stroke-width:0.0000; stroke-opacity:1; 
stroke-linecap:round; stroke-linejoin:round;">
<circle cx="13.8577" cy="6.9312" r="0.1499" /> 
</g>
<g style="fill:#000000; fill-opacity:1.0000; 
stroke:#000000; stroke-width:0.0212; stroke-opacity:1; 
stroke-linecap:round; stroke-linejoin:round;">
</g>
<g style="fill:#000000; fill-opacity:1.0000; 
stroke:#000000; stroke-width:0.0000; stroke-opacity:1; 
stroke-linecap:round; stroke-linejoin:round;">
<circle cx="15.1277" cy="10.8682" r="0.1499" /> 
</g>
<g style="fill:#000000; fill-opacity:1.0000; 
stroke:#000000; stroke-width:0.0212; stroke-opacity:1; 
stroke-linecap:round; stroke-linejoin:round;">
</g>
<g style="fill:#000000; fill-opacity:1.0000; 
stroke:#000000; stroke-width:0.0000; stroke-opacity:1; 
stroke-linecap:round; stroke-linejoin:round;">
<circle cx="17.0175" cy="13.9695" r="0.1499" /> 
</g>
<g style="fill:#000000; fill-opacity:1.0000; 
stroke:#000000; stroke-width:0.0212; stroke-opacity:1; 
stroke-linecap:round; stroke-linejoin:round;">
</g>
<g style="fill:#000000; fill-opacity:1.0000; 
stroke:#000000; stroke-width:0.0000; stroke-opacity:1; 
stroke-linecap:round; stroke-linejoin:round;">
<circle cx="17.2715" cy="12.0112" r="0.1499" /> 
</g>
<g style="fill:#000000; fill-opacity:1.0000; 
stroke:#000000; stroke-width:0.0212; stroke-opacity:1; 
stroke-linecap:round; stroke-linejoin:round;">
</g>
<g style="fill:#000000; fill-opacity:1.0000; 
stroke:#000000; stroke-width:0.0000; stroke-opacity:1; 
stroke-linecap:round; stroke-linejoin:round;">
<circle cx="17.5255" cy="9.1435" r="0.2500" /> 
</g>
<g style="fill:#000000; fill-opacity:1.0000; 
stroke:#000000; stroke-width:0.0212; stroke-opacity:1; 
stroke-linecap:round; stroke-linejoin:round;">
</g>
<g style="fill:#000000; fill-opacity:1.0000; 
stroke:#000000; stroke-width:0.0000; stroke-opacity:1; 
stroke-linecap:round; stroke-linejoin:round;">
<circle cx="19.8115" cy="15.1862" r="0.1499" /> 
</g>
<g style="fill:#000000; fill-opacity:1.0000; 
stroke:#000000; stroke-width:0.0212; stroke-opacity:1; 
stroke-linecap:round; stroke-linejoin:round;">
</g>
<g style="fill:#000000; fill-opacity:1.0000; 
stroke:#000000; stroke-width:0.0000; stroke-opacity:1; 
stroke-linecap:round; stroke-linejoin:round;">
<circle cx="20.8275" cy="15.2395" r="0.1499" /> 
</g>
<g style="fill:#000000; fill-opacity:1.0000; 
stroke:#000000; stroke-width:0.0212; stroke-opacity:1; 
stroke-linecap:round; stroke-linejoin:round;">
</g>
<g style="fill:#000000; fill-opacity:1.0000; 
stroke:#000000; stroke-width:0.0000; stroke-opacity:1; 
stroke-linecap:round; stroke-linejoin:round;">
<circle cx="21.5895" cy="10.9215" r="0.2500" /> 
</g>
<g style="fill:#000000; fill-opacity:1.0000; 
stroke:#000000; stroke-width:0.0212; stroke-opacity:1; 
stroke-linecap:round; stroke-linejoin:round;">
</g>
<g style="fill:#000000; fill-opacity:1.0000; 
stroke:#000000; stroke-width:0.0000; stroke-opacity:1; 
stroke-linecap:round; stroke-linejoin:round;">
<circle cx="25.3995" cy="12.1915" r="0.2500" /> 
</g>
<g style="fill:#000000; fill-opacity:1.0000; 
stroke:#000000; stroke-width:0.0212; stroke-opacity:1; 
stroke-linecap:round; stroke-linejoin:round;">
</g>
<g style="fill:#000000; fill-opacity:1.0000; 
stroke:#000000; stroke-width:0.0000; stroke-opacity:1; 
stroke-linecap:round; stroke-linejoin:round;">
<circle cx="25.6535" cy="5.0795" r="0.2500" /> 
</g>
<g style="fill:#000000; fill-opacity:1.0000; 
stroke:#000000; stroke-width:0.0212; stroke-opacity:1; 
stroke-linecap:round; stroke-linejoin:round;">
</g>
<g style="fill:#000000; fill-opacity:1.0000; 
stroke:#000000; stroke-width:0.0000; stroke-opacity:1; 
stroke-linecap:round; stroke-linejoin:round;">
<circle cx="25.9075" cy="10.1595" r="0.1499" /> 
</g>
<g style="fill:#000000; fill-opacity:1.0000; 
stroke:#000000; stroke-width:0.0212; stroke-opacity:1; 
stroke-linecap:round; stroke-linejoin:round;">
</g>
<g style="fill:#000000; fill-opacity:1.0000; 
stroke:#000000; stroke-width:0.0000; stroke-opacity:1; 
stroke-linecap:round; stroke-linejoin:round;">
<circle cx="26.4155" cy="12.1915" r="0.2500" /> 
</g>
<g style="fill:#000000; fill-opacity:1.0000; 
stroke:#000000; stroke-width:0.0212; stroke-opacity:1; 
stroke-linecap:round; stroke-linejoin:round;">
</g>
<g style="fill:#000000; fill-opacity:1.0000; 
stroke:#000000; stroke-width:0.0000; stroke-opacity:1; 
stroke-linecap:round; stroke-linejoin:round;">
<circle cx="15.4935" cy="16.8676" r="0.4001" /> 
</g>
<g style="fill:#000000; fill-opacity:1.0000; 
stroke:#000000; stroke-width:0.0212; stroke-opacity:1; 
stroke-linecap:round; stroke-linejoin:round;">
</g>
<g style="fill:#000000; fill-opacity:1.0000; 
stroke:#000000; stroke-width:0.0000; stroke-opacity:1; 
stroke-linecap:round; stroke-linejoin:round;">
<circle cx="15.4935" cy="18.8692" r="0.4001" /> 
</g>
<g style="fill:#000000; fill-opacity:1.0000; 
stroke:#000000; stroke-width:0.0212; stroke-opacity:1; 
stroke-linecap:round; stroke-linejoin:round;">
</g>
<g style="fill:#000000; fill-opacity:1.0000; 
stroke:#000000; stroke-width:0.0000; stroke-opacity:1; 
stroke-linecap:round; stroke-linejoin:round;">
<circle cx="17.4925" cy="16.8676" r="0.4001" /> 
</g>
<g style="fill:#000000; fill-opacity:1.0000; 
stroke:#000000; stroke-width:0.0212; stroke-opacity:1; 
stroke-linecap:round; stroke-linejoin:round;">
</g>
<g style="fill:#000000; fill-opacity:1.0000; 
stroke:#000000; stroke-width:0.0000; stroke-opacity:1; 
stroke-linecap:round; stroke-linejoin:round;">
<circle cx="17.4925" cy="18.8692" r="0.4001" /> 
</g>
<g style="fill:#000000; fill-opacity:1.0000; 
stroke:#000000; stroke-width:0.0212; stroke-opacity:1; 
stroke-linecap:round; stroke-linejoin:round;">
</g>
<g style="fill:#000000; fill-opacity:1.0000; 
stroke:#000000; stroke-width:0.0000; stroke-opacity:1; 
stroke-linecap:round; stroke-linejoin:round;">
<circle cx="19.4940" cy="16.8676" r="0.4001" /> 
</g>
<g style="fill:#000000; fill-opacity:1.0000; 
stroke:#000000; stroke-width:0.0212; stroke-opacity:1; 
stroke-linecap:round; stroke-linejoin:round;">
</g>
<g style="fill:#000000; fill-opacity:1.0000; 
stroke:#000000; stroke-width:0.0000; stroke-opacity:1; 
stroke-linecap:round; stroke-linejoin:round;">
<circle cx="19.4940" cy="18.8692" r="0.4001" /> 
</g>
<g style="fill:#000000; fill-opacity:1.0000; 
stroke:#000000; stroke-width:0.0212; stroke-opacity:1; 
stroke-linecap:round; stroke-linejoin:round;">
</g>
<g >
</g>
<g style="fill:#000000; fill-opacity:1.0000; 
stroke:#000000; stroke-width:0.0212; stroke-opacity:1; 
stroke-linecap:round; stroke-linejoin:round;">
</g>
<g style="fill:#000000; fill-opacity:1.0000; 
stroke:#000000; stroke-width:0.2500; stroke-opacity:1; 
stroke-linecap:round; stroke-linejoin:round;">
</g>
<g style="fill:#000000; fill-opacity:0.0; 
stroke:#000000; stroke-width:0.2500; stroke-opacity:1; 
stroke-linecap:round; stroke-linejoin:round;">
<path d="M26.4325 9.4340
L22.8400 5.8415
" />
<path d="M26.4325 10.3769
L26.4325 9.4340
" />
<path d="M5.6765 5.8415
L4.7145 6.8035
" />
<path d="M26.4155 10.3940
L26.4325 10.3769
" />
<path d="M26.4155 12.1915
L26.4155 10.3940
" />
<path d="M22.8400 5.8415
L5.6765 5.8415
" />
</g>
<g style="fill:#000000; fill-opacity:0.0; 
stroke:#000000; stroke-width:0.2540; stroke-opacity:1; 
stroke-linecap:round; stroke-linejoin:round;">
<path d="M22.1515 6.4035
L25.9075 10.1595
" />
<path d="M5.7305 6.8035
L6.1305 6.4035
" />
<path d="M6.1305 6.4035
L22.1515 6.4035
" />
<path d="M15.4935 16.8685
L15.4935 13.7885
" />
<path d="M15.4935 13.7885
L17.2715 12.0105
" />
<path d="M21.2245 6.9305
L25.3995 11.1055
" />
<path d="M13.8585 6.9305
L21.2245 6.9305
" />
<path d="M25.3995 11.1055
L25.3995 12.1915
" />
<path d="M17.0175 13.9695
L17.2715 13.7155
" />
<path d="M17.2715 13.7155
L18.3415 13.7155
" />
<path d="M18.3415 13.7155
L19.8115 15.1855
" />
<path d="M19.4935 18.8685
L20.8275 17.5345
" />
<path d="M20.8275 17.5345
L20.8275 15.2395
" />
</g>
<g >
</g>
</g>
<g style="fill:#000000; fill-opacity:0.0; 
stroke:#000000; stroke-width:0.2540; stroke-opacity:1; 
stroke-linecap:round; stroke-linejoin:round;">
<path d="M27.5705 16.2809
L24.5105 16.2809
" />
<path d="M24.5105 16.2809
L21.0815 20.9995
" />
<path d="M21.0815 20.9995
L-0.0005 20.9995
" />
<path d="M-0.0005 20.9995
L-0.0005 -0.0005
" />
<path d="M-0.0005 -0.0005
L27.5705 -0.0005
" />
<path d="M27.5705 -0.0005
L27.5705 16.2809
" />
<g >
</g>
<g >
</g>
<g >
</g>
</g> 
</svg>
