<?xml version="1.0" standalone="no"?>
 <!DOCTYPE svg PUBLIC "-//W3C//DTD SVG 1.1//EN" 
 "http://www.w3.org/Graphics/SVG/1.1/DTD/svg11.dtd"> 
<svg
  xmlns:svg="http://www.w3.org/2000/svg"
  xmlns="http://www.w3.org/2000/svg"
  xmlns:xlink="http://www.w3.org/1999/xlink"
  version="1.1"
  width="27.5590mm" height="20.9804mm" viewBox="0.0000 0.0000 27.5590 20.9804">
<title>SVG Image created as GAL_v3-F_Silkscreen.svg date 2025/05/06 01:45:53 </title>
  <desc>Image generated by PCBNEW </desc>
<g style="fill:#000000; fill-opacity:1.0000;stroke:#000000; stroke-opacity:1.0000;
stroke-linecap:round; stroke-linejoin:round;"
 transform="translate(0 0) scale(1 1)">
</g>
<g style="fill:#000000; fill-opacity:0.0; 
stroke:#000000; stroke-width:0.0000; stroke-opacity:1; 
stroke-linecap:round; stroke-linejoin:round;">
</g>
<g style="fill:#000000; fill-opacity:0.0; 
stroke:#000000; stroke-width:0.1200; stroke-opacity:1; 
stroke-linecap:round; stroke-linejoin:round;">
<path d="M13.0965 7.1485
L11.2465 7.1485
" />
<path d="M13.0965 7.1485
L13.8465 7.1485
" />
<path d="M13.0965 10.2685
L12.3465 10.2685
" />
<path d="M13.0965 10.2685
L13.8465 10.2685
" />
</g>
<g style="fill:#000000; fill-opacity:0.0; 
stroke:#000000; stroke-width:0.2000; stroke-opacity:1; 
stroke-linecap:round; stroke-linejoin:round;">
<path d="M12.1145 13.3375
L11.2645 13.3375
" />
<path d="M12.1145 10.9375
L11.8645 10.9375
" />
<path d="M10.2645 13.3375
L10.0145 13.3375
" />
<path d="M10.2645 10.9375
L10.0145 10.9375
" />
</g>
<g style="fill:#000000; fill-opacity:0.0; 
stroke:#000000; stroke-width:0.1200; stroke-opacity:1; 
stroke-linecap:round; stroke-linejoin:round;">
<path d="M16.2705 9.0629
L16.2705 9.3701
" />
<path d="M15.5105 9.0629
L15.5105 9.3701
" />
<path d="M9.0231 13.9671
L8.7158 13.9671
" />
<path d="M9.0231 13.2071
L8.7158 13.2071
" />
<path d="M8.2135 17.0675
L8.2135 16.9675
" />
<path d="M8.2135 18.5675
L12.6135 18.5675
" />
<path d="M9.2635 15.4675
L8.2135 15.4675
" />
<path d="M12.6135 15.4675
L11.5635 15.4675
" />
<path d="M12.6135 17.0675
L12.6135 16.9675
" />
<path d="M15.4035 12.3723
L15.4035 12.1567
" />
<path d="M16.1235 12.3723
L16.1235 12.1567
" />
<path d="M5.3565 7.7735
L5.3565 8.8235
" />
<path d="M2.8565 7.7735
L5.3565 7.7735
" />
<path d="M5.3565 8.8235
L6.3465 8.8235
" />
<path d="M0.8865 8.9435
L0.8865 14.8235
" />
<path d="M5.3565 15.9935
L5.3565 14.9435
" />
<path d="M2.8565 15.9935
L5.3565 15.9935
" />
<path d="M13.8851 13.0255
L13.5779 13.0255
" />
<path d="M13.8851 12.2655
L13.5779 12.2655
" />
<path d="M14.4335 19.9285
L14.4335 18.8685
" />
<path d="M15.4935 19.9285
L14.4335 19.9285
" />
<path d="M16.4935 19.9285
L20.5535 19.9285
" />
<path d="M16.4935 19.9285
L16.4935 17.8685
" />
<path d="M20.5535 19.9285
L20.5535 15.8085
" />
<path d="M14.4335 17.8685
L14.4335 15.8085
" />
<path d="M16.4935 17.8685
L14.4335 17.8685
" />
<path d="M14.4335 15.8085
L20.5535 15.8085
" />
<path d="M13.8851 11.8825
L13.5779 11.8825
" />
<path d="M13.8851 11.1225
L13.5779 11.1225
" />
<path d="M9.3325 5.2865
L8.2825 5.2865
" />
<path d="M9.3325 2.7865
L9.3325 5.2865
" />
<path d="M8.2825 5.2865
L8.2825 6.2765
" />
<path d="M8.1625 0.8165
L2.2825 0.8165
" />
<path d="M1.1125 5.2865
L2.1625 5.2865
" />
<path d="M1.1125 2.7865
L1.1125 5.2865
" />
<path d="M8.4893 12.5515
L8.2737 12.5515
" />
<path d="M8.4893 11.8315
L8.2737 11.8315
" />
<path d="M18.1705 11.1215
L18.1705 14.5715
" />
<path d="M18.1705 11.1215
L18.1705 9.1715
" />
<path d="M27.0405 11.1215
L27.0405 13.0715
" />
<path d="M27.0405 11.1215
L27.0405 9.1715
" />
</g>
<g style="fill:#000000; fill-opacity:0.0; 
stroke:#000000; stroke-width:0.1000; stroke-opacity:1; 
stroke-linecap:round; stroke-linejoin:round;">
<path d="M19.8595 0.6125
L23.8595 0.6125
" />
<path d="M23.8595 0.6125
L23.8595 6.8985
" />
<path d="M23.8595 6.8985
L19.8595 6.8985
" />
<path d="M19.8595 6.8985
L19.8595 0.6125
" />
</g>
<g style="fill:#000000; fill-opacity:0.0; 
stroke:#000000; stroke-width:0.3500; stroke-opacity:1; 
stroke-linecap:round; stroke-linejoin:round;">
<circle cx="20.4625" cy="1.2155" r="0.1750" /> 
</g>
<g style="fill:#000000; fill-opacity:0.0; 
stroke:#000000; stroke-width:0.1200; stroke-opacity:1; 
stroke-linecap:round; stroke-linejoin:round;">
<path d="M8.9275 9.8595
L8.9275 10.4595
" />
<path d="M7.3275 9.6595
L7.3275 10.8595
" />
</g>
<g style="fill:#000000; fill-opacity:0.0; 
stroke:#000000; stroke-width:0.0000; stroke-opacity:1; 
stroke-linecap:round; stroke-linejoin:round;">
</g>
<g style="fill:#000000; fill-opacity:1.0000; 
stroke:#000000; stroke-width:0.0000; stroke-opacity:1; 
stroke-linecap:round; stroke-linejoin:round;">
<path style="fill:#000000; fill-opacity:1.0000; 
stroke:#000000; stroke-width:0.0000; stroke-opacity:1; 
stroke-linecap:round; stroke-linejoin:round;fill-rule:evenodd;"
d="M 12.5587,7.5091
12.5709,7.5109
12.5828,7.5139
12.5943,7.5180
12.6054,7.5233
12.6159,7.5296
12.6258,7.5369
12.6349,7.5451
12.6431,7.5542
12.6504,7.5640
12.6567,7.5746
12.6620,7.5857
12.6661,7.5972
12.6691,7.6091
12.6709,7.6212
12.6715,7.6335
12.6715,7.8835
12.6709,7.8957
12.6691,7.9079
12.6661,7.9198
12.6620,7.9313
12.6567,7.9424
12.6504,7.9529
12.6431,7.9628
12.6349,7.9719
12.6258,7.9801
12.6159,7.9874
12.6054,7.9937
12.5943,7.9990
12.5828,8.0031
12.5709,8.0061
12.5587,8.0079
12.5465,8.0085
11.3715,8.0085
11.3592,8.0079
11.3471,8.0061
11.3352,8.0031
11.3237,7.9990
11.3126,7.9937
11.3020,7.9874
11.2922,7.9801
11.2831,7.9719
11.2749,7.9628
11.2676,7.9529
11.2613,7.9424
11.2560,7.9313
11.2519,7.9198
11.2489,7.9079
11.2471,7.8957
11.2465,7.8835
11.2465,7.6335
11.2471,7.6212
11.2489,7.6091
11.2519,7.5972
11.2560,7.5857
11.2613,7.5746
11.2676,7.5640
11.2749,7.5542
11.2831,7.5451
11.2922,7.5369
11.3020,7.5296
11.3126,7.5233
11.3237,7.5180
11.3352,7.5139
11.3471,7.5109
11.3592,7.5091
11.3715,7.5085
12.5465,7.5085
Z" /> 
<path style="fill:#000000; fill-opacity:1.0000; 
stroke:#000000; stroke-width:0.0000; stroke-opacity:1; 
stroke-linecap:round; stroke-linejoin:round;fill-rule:evenodd;"
d="M 12.5587,8.4591
12.5709,8.4609
12.5828,8.4639
12.5943,8.4680
12.6054,8.4733
12.6159,8.4796
12.6258,8.4869
12.6349,8.4951
12.6431,8.5042
12.6504,8.5140
12.6567,8.5246
12.6620,8.5357
12.6661,8.5472
12.6691,8.5591
12.6709,8.5712
12.6715,8.5835
12.6715,8.8335
12.6709,8.8457
12.6691,8.8579
12.6661,8.8698
12.6620,8.8813
12.6567,8.8924
12.6504,8.9029
12.6431,8.9128
12.6349,8.9219
12.6258,8.9301
12.6159,8.9374
12.6054,8.9437
12.5943,8.9490
12.5828,8.9531
12.5709,8.9561
12.5587,8.9579
12.5465,8.9585
11.3715,8.9585
11.3592,8.9579
11.3471,8.9561
11.3352,8.9531
11.3237,8.9490
11.3126,8.9437
11.3020,8.9374
11.2922,8.9301
11.2831,8.9219
11.2749,8.9128
11.2676,8.9029
11.2613,8.8924
11.2560,8.8813
11.2519,8.8698
11.2489,8.8579
11.2471,8.8457
11.2465,8.8335
11.2465,8.5835
11.2471,8.5712
11.2489,8.5591
11.2519,8.5472
11.2560,8.5357
11.2613,8.5246
11.2676,8.5140
11.2749,8.5042
11.2831,8.4951
11.2922,8.4869
11.3020,8.4796
11.3126,8.4733
11.3237,8.4680
11.3352,8.4639
11.3471,8.4609
11.3592,8.4591
11.3715,8.4585
12.5465,8.4585
Z" /> 
<path style="fill:#000000; fill-opacity:1.0000; 
stroke:#000000; stroke-width:0.0000; stroke-opacity:1; 
stroke-linecap:round; stroke-linejoin:round;fill-rule:evenodd;"
d="M 12.5587,9.4091
12.5709,9.4109
12.5828,9.4139
12.5943,9.4180
12.6054,9.4233
12.6159,9.4296
12.6258,9.4369
12.6349,9.4451
12.6431,9.4542
12.6504,9.4641
12.6567,9.4746
12.6620,9.4857
12.6661,9.4972
12.6691,9.5091
12.6709,9.5213
12.6715,9.5335
12.6715,9.7835
12.6709,9.7957
12.6691,9.8079
12.6661,9.8198
12.6620,9.8313
12.6567,9.8424
12.6504,9.8529
12.6431,9.8628
12.6349,9.8719
12.6258,9.8801
12.6159,9.8874
12.6054,9.8937
12.5943,9.8990
12.5828,9.9031
12.5709,9.9061
12.5587,9.9079
12.5465,9.9085
11.3715,9.9085
11.3592,9.9079
11.3471,9.9061
11.3352,9.9031
11.3237,9.8990
11.3126,9.8937
11.3020,9.8874
11.2922,9.8801
11.2831,9.8719
11.2749,9.8628
11.2676,9.8529
11.2613,9.8424
11.2560,9.8313
11.2519,9.8198
11.2489,9.8079
11.2471,9.7957
11.2465,9.7835
11.2465,9.5335
11.2471,9.5213
11.2489,9.5091
11.2519,9.4972
11.2560,9.4857
11.2613,9.4746
11.2676,9.4641
11.2749,9.4542
11.2831,9.4451
11.2922,9.4369
11.3020,9.4296
11.3126,9.4233
11.3237,9.4180
11.3352,9.4139
11.3471,9.4109
11.3592,9.4091
11.3715,9.4085
12.5465,9.4085
Z" /> 
<path style="fill:#000000; fill-opacity:1.0000; 
stroke:#000000; stroke-width:0.0000; stroke-opacity:1; 
stroke-linecap:round; stroke-linejoin:round;fill-rule:evenodd;"
d="M 14.8338,9.4091
14.8459,9.4109
14.8578,9.4139
14.8693,9.4180
14.8804,9.4233
14.8910,9.4296
14.9008,9.4369
14.9099,9.4451
14.9181,9.4542
14.9254,9.4641
14.9317,9.4746
14.9370,9.4857
14.9411,9.4972
14.9441,9.5091
14.9459,9.5213
14.9465,9.5335
14.9465,9.7835
14.9459,9.7957
14.9441,9.8079
14.9411,9.8198
14.9370,9.8313
14.9317,9.8424
14.9254,9.8529
14.9181,9.8628
14.9099,9.8719
14.9008,9.8801
14.8910,9.8874
14.8804,9.8937
14.8693,9.8990
14.8578,9.9031
14.8459,9.9061
14.8338,9.9079
14.8215,9.9085
13.6465,9.9085
13.6342,9.9079
13.6221,9.9061
13.6102,9.9031
13.5987,9.8990
13.5876,9.8937
13.5770,9.8874
13.5672,9.8801
13.5581,9.8719
13.5499,9.8628
13.5426,9.8529
13.5363,9.8424
13.5310,9.8313
13.5269,9.8198
13.5239,9.8079
13.5221,9.7957
13.5215,9.7835
13.5215,9.5335
13.5221,9.5213
13.5239,9.5091
13.5269,9.4972
13.5310,9.4857
13.5363,9.4746
13.5426,9.4641
13.5499,9.4542
13.5581,9.4451
13.5672,9.4369
13.5770,9.4296
13.5876,9.4233
13.5987,9.4180
13.6102,9.4139
13.6221,9.4109
13.6342,9.4091
13.6465,9.4085
14.8215,9.4085
Z" /> 
<path style="fill:#000000; fill-opacity:1.0000; 
stroke:#000000; stroke-width:0.0000; stroke-opacity:1; 
stroke-linecap:round; stroke-linejoin:round;fill-rule:evenodd;"
d="M 14.8338,8.4591
14.8459,8.4609
14.8578,8.4639
14.8693,8.4680
14.8804,8.4733
14.8910,8.4796
14.9008,8.4869
14.9099,8.4951
14.9181,8.5042
14.9254,8.5140
14.9317,8.5246
14.9370,8.5357
14.9411,8.5472
14.9441,8.5591
14.9459,8.5712
14.9465,8.5835
14.9465,8.8335
14.9459,8.8457
14.9441,8.8579
14.9411,8.8698
14.9370,8.8813
14.9317,8.8924
14.9254,8.9029
14.9181,8.9128
14.9099,8.9219
14.9008,8.9301
14.8910,8.9374
14.8804,8.9437
14.8693,8.9490
14.8578,8.9531
14.8459,8.9561
14.8338,8.9579
14.8215,8.9585
13.6465,8.9585
13.6342,8.9579
13.6221,8.9561
13.6102,8.9531
13.5987,8.9490
13.5876,8.9437
13.5770,8.9374
13.5672,8.9301
13.5581,8.9219
13.5499,8.9128
13.5426,8.9029
13.5363,8.8924
13.5310,8.8813
13.5269,8.8698
13.5239,8.8579
13.5221,8.8457
13.5215,8.8335
13.5215,8.5835
13.5221,8.5712
13.5239,8.5591
13.5269,8.5472
13.5310,8.5357
13.5363,8.5246
13.5426,8.5140
13.5499,8.5042
13.5581,8.4951
13.5672,8.4869
13.5770,8.4796
13.5876,8.4733
13.5987,8.4680
13.6102,8.4639
13.6221,8.4609
13.6342,8.4591
13.6465,8.4585
14.8215,8.4585
Z" /> 
<path style="fill:#000000; fill-opacity:1.0000; 
stroke:#000000; stroke-width:0.0000; stroke-opacity:1; 
stroke-linecap:round; stroke-linejoin:round;fill-rule:evenodd;"
d="M 14.8338,7.5091
14.8459,7.5109
14.8578,7.5139
14.8693,7.5180
14.8804,7.5233
14.8910,7.5296
14.9008,7.5369
14.9099,7.5451
14.9181,7.5542
14.9254,7.5640
14.9317,7.5746
14.9370,7.5857
14.9411,7.5972
14.9441,7.6091
14.9459,7.6212
14.9465,7.6335
14.9465,7.8835
14.9459,7.8957
14.9441,7.9079
14.9411,7.9198
14.9370,7.9313
14.9317,7.9424
14.9254,7.9529
14.9181,7.9628
14.9099,7.9719
14.9008,7.9801
14.8910,7.9874
14.8804,7.9937
14.8693,7.9990
14.8578,8.0031
14.8459,8.0061
14.8338,8.0079
14.8215,8.0085
13.6465,8.0085
13.6342,8.0079
13.6221,8.0061
13.6102,8.0031
13.5987,7.9990
13.5876,7.9937
13.5770,7.9874
13.5672,7.9801
13.5581,7.9719
13.5499,7.9628
13.5426,7.9529
13.5363,7.9424
13.5310,7.9313
13.5269,7.9198
13.5239,7.9079
13.5221,7.8957
13.5215,7.8835
13.5215,7.6335
13.5221,7.6212
13.5239,7.6091
13.5269,7.5972
13.5310,7.5857
13.5363,7.5746
13.5426,7.5640
13.5499,7.5542
13.5581,7.5451
13.5672,7.5369
13.5770,7.5296
13.5876,7.5233
13.5987,7.5180
13.6102,7.5139
13.6221,7.5109
13.6342,7.5091
13.6465,7.5085
14.8215,7.5085
Z" /> 
<path style="fill:#000000; fill-opacity:1.0000; 
stroke:#000000; stroke-width:0.0000; stroke-opacity:1; 
stroke-linecap:round; stroke-linejoin:round;fill-rule:evenodd;"
d="M 12.2645,12.9375
11.8145,12.9375
11.8145,12.6375
12.2645,12.6375
Z" /> 
<path style="fill:#000000; fill-opacity:1.0000; 
stroke:#000000; stroke-width:0.0000; stroke-opacity:1; 
stroke-linecap:round; stroke-linejoin:round;fill-rule:evenodd;"
d="M 12.2645,12.2875
11.8145,12.2875
11.8145,11.9875
12.2645,11.9875
Z" /> 
<path style="fill:#000000; fill-opacity:1.0000; 
stroke:#000000; stroke-width:0.0000; stroke-opacity:1; 
stroke-linecap:round; stroke-linejoin:round;fill-rule:evenodd;"
d="M 12.2645,11.6375
11.8145,11.6375
11.8145,11.3375
12.2645,11.3375
Z" /> 
<path style="fill:#000000; fill-opacity:1.0000; 
stroke:#000000; stroke-width:0.0000; stroke-opacity:1; 
stroke-linecap:round; stroke-linejoin:round;fill-rule:evenodd;"
d="M 10.3145,11.6375
9.8645,11.6375
9.8645,11.3375
10.3145,11.3375
Z" /> 
<path style="fill:#000000; fill-opacity:1.0000; 
stroke:#000000; stroke-width:0.0000; stroke-opacity:1; 
stroke-linecap:round; stroke-linejoin:round;fill-rule:evenodd;"
d="M 10.3145,12.2875
9.8645,12.2875
9.8645,11.9875
10.3145,11.9875
Z" /> 
<path style="fill:#000000; fill-opacity:1.0000; 
stroke:#000000; stroke-width:0.0000; stroke-opacity:1; 
stroke-linecap:round; stroke-linejoin:round;fill-rule:evenodd;"
d="M 10.3145,12.9375
9.8645,12.9375
9.8645,12.6375
10.3145,12.6375
Z" /> 
<path style="fill:#000000; fill-opacity:1.0000; 
stroke:#000000; stroke-width:0.0000; stroke-opacity:1; 
stroke-linecap:round; stroke-linejoin:round;fill-rule:evenodd;"
d="M 11.5645,12.9375
10.5645,12.9375
10.5645,11.3375
11.5645,11.3375
Z" /> 
<path style="fill:#000000; fill-opacity:1.0000; 
stroke:#000000; stroke-width:0.0000; stroke-opacity:1; 
stroke-linecap:round; stroke-linejoin:round;fill-rule:evenodd;"
d="M 16.0887,8.4371
16.1018,8.4391
16.1147,8.4423
16.1272,8.4468
16.1391,8.4524
16.1505,8.4592
16.1611,8.4671
16.1710,8.4760
16.1799,8.4859
16.1877,8.4965
16.1946,8.5079
16.2002,8.5198
16.2047,8.5323
16.2079,8.5452
16.2098,8.5583
16.2105,8.5715
16.2105,8.8415
16.2098,8.8547
16.2079,8.8678
16.2047,8.8807
16.2002,8.8932
16.1946,8.9051
16.1877,8.9165
16.1799,8.9271
16.1710,8.9370
16.1611,8.9459
16.1505,8.9537
16.1391,8.9606
16.1272,8.9662
16.1147,8.9707
16.1018,8.9739
16.0887,8.9758
16.0755,8.9765
15.7055,8.9765
15.6923,8.9758
15.6792,8.9739
15.6663,8.9707
15.6538,8.9662
15.6419,8.9606
15.6305,8.9537
15.6199,8.9459
15.6100,8.9370
15.6011,8.9271
15.5932,8.9165
15.5864,8.9051
15.5808,8.8932
15.5763,8.8807
15.5731,8.8678
15.5711,8.8547
15.5705,8.8415
15.5705,8.5715
15.5711,8.5583
15.5731,8.5452
15.5763,8.5323
15.5808,8.5198
15.5864,8.5079
15.5932,8.4965
15.6011,8.4859
15.6100,8.4760
15.6199,8.4671
15.6305,8.4592
15.6419,8.4524
15.6538,8.4468
15.6663,8.4423
15.6792,8.4391
15.6923,8.4371
15.7055,8.4365
16.0755,8.4365
Z" /> 
<path style="fill:#000000; fill-opacity:1.0000; 
stroke:#000000; stroke-width:0.0000; stroke-opacity:1; 
stroke-linecap:round; stroke-linejoin:round;fill-rule:evenodd;"
d="M 16.0887,9.4572
16.1018,9.4591
16.1147,9.4623
16.1272,9.4668
16.1391,9.4724
16.1505,9.4793
16.1611,9.4871
16.1710,9.4960
16.1799,9.5059
16.1877,9.5165
16.1946,9.5279
16.2002,9.5398
16.2047,9.5523
16.2079,9.5652
16.2098,9.5783
16.2105,9.5915
16.2105,9.8615
16.2098,9.8747
16.2079,9.8878
16.2047,9.9007
16.2002,9.9132
16.1946,9.9251
16.1877,9.9365
16.1799,9.9471
16.1710,9.9570
16.1611,9.9659
16.1505,9.9737
16.1391,9.9806
16.1272,9.9862
16.1147,9.9907
16.1018,9.9939
16.0887,9.9958
16.0755,9.9965
15.7055,9.9965
15.6923,9.9958
15.6792,9.9939
15.6663,9.9907
15.6538,9.9862
15.6419,9.9806
15.6305,9.9737
15.6199,9.9659
15.6100,9.9570
15.6011,9.9471
15.5932,9.9365
15.5864,9.9251
15.5808,9.9132
15.5763,9.9007
15.5731,9.8878
15.5711,9.8747
15.5705,9.8615
15.5705,9.5915
15.5711,9.5783
15.5731,9.5652
15.5763,9.5523
15.5808,9.5398
15.5864,9.5279
15.5932,9.5165
15.6011,9.5059
15.6100,9.4960
15.6199,9.4871
15.6305,9.4793
15.6419,9.4724
15.6538,9.4668
15.6663,9.4623
15.6792,9.4591
15.6923,9.4572
15.7055,9.4565
16.0755,9.4565
Z" /> 
<path style="fill:#000000; fill-opacity:1.0000; 
stroke:#000000; stroke-width:0.0000; stroke-opacity:1; 
stroke-linecap:round; stroke-linejoin:round;fill-rule:evenodd;"
d="M 9.5277,13.2678
9.5408,13.2697
9.5537,13.2729
9.5662,13.2774
9.5781,13.2831
9.5895,13.2899
9.6001,13.2978
9.6099,13.3067
9.6189,13.3165
9.6267,13.3271
9.6335,13.3385
9.6392,13.3505
9.6437,13.3629
9.6469,13.3758
9.6488,13.3889
9.6495,13.4021
9.6495,13.7721
9.6488,13.7854
9.6469,13.7985
9.6437,13.8113
9.6392,13.8238
9.6335,13.8358
9.6267,13.8471
9.6189,13.8578
9.6099,13.8676
9.6001,13.8765
9.5895,13.8844
9.5781,13.8912
9.5662,13.8969
9.5537,13.9013
9.5408,13.9045
9.5277,13.9065
9.5145,13.9071
9.2445,13.9071
9.2313,13.9065
9.2181,13.9045
9.2053,13.9013
9.1928,13.8969
9.1808,13.8912
9.1695,13.8844
9.1588,13.8765
9.1490,13.8676
9.1401,13.8578
9.1322,13.8471
9.1254,13.8358
9.1198,13.8238
9.1153,13.8113
9.1121,13.7985
9.1101,13.7854
9.1095,13.7721
9.1095,13.4021
9.1101,13.3889
9.1121,13.3758
9.1153,13.3629
9.1198,13.3505
9.1254,13.3385
9.1322,13.3271
9.1401,13.3165
9.1490,13.3067
9.1588,13.2978
9.1695,13.2899
9.1808,13.2831
9.1928,13.2774
9.2053,13.2729
9.2181,13.2697
9.2313,13.2678
9.2445,13.2671
9.5145,13.2671
Z" /> 
<path style="fill:#000000; fill-opacity:1.0000; 
stroke:#000000; stroke-width:0.0000; stroke-opacity:1; 
stroke-linecap:round; stroke-linejoin:round;fill-rule:evenodd;"
d="M 8.5077,13.2678
8.5208,13.2697
8.5337,13.2729
8.5461,13.2774
8.5581,13.2831
8.5695,13.2899
8.5801,13.2978
8.5899,13.3067
8.5988,13.3165
8.6067,13.3271
8.6136,13.3385
8.6192,13.3505
8.6237,13.3629
8.6269,13.3758
8.6288,13.3889
8.6295,13.4021
8.6295,13.7721
8.6288,13.7854
8.6269,13.7985
8.6237,13.8113
8.6192,13.8238
8.6136,13.8358
8.6067,13.8471
8.5988,13.8578
8.5899,13.8676
8.5801,13.8765
8.5695,13.8844
8.5581,13.8912
8.5461,13.8969
8.5337,13.9013
8.5208,13.9045
8.5077,13.9065
8.4945,13.9071
8.2245,13.9071
8.2113,13.9065
8.1982,13.9045
8.1853,13.9013
8.1728,13.8969
8.1608,13.8912
8.1495,13.8844
8.1388,13.8765
8.1290,13.8676
8.1201,13.8578
8.1122,13.8471
8.1054,13.8358
8.0998,13.8238
8.0953,13.8113
8.0921,13.7985
8.0901,13.7854
8.0895,13.7721
8.0895,13.4021
8.0901,13.3889
8.0921,13.3758
8.0953,13.3629
8.0998,13.3505
8.1054,13.3385
8.1122,13.3271
8.1201,13.3165
8.1290,13.3067
8.1388,13.2978
8.1495,13.2899
8.1608,13.2831
8.1728,13.2774
8.1853,13.2729
8.1982,13.2697
8.2113,13.2678
8.2245,13.2671
8.4945,13.2671
Z" /> 
<path style="fill:#000000; fill-opacity:1.0000; 
stroke:#000000; stroke-width:0.0000; stroke-opacity:1; 
stroke-linecap:round; stroke-linejoin:round;fill-rule:evenodd;"
d="M 8.8135,16.7175
7.9135,16.7175
7.9135,15.7175
8.8135,15.7175
Z" /> 
<path style="fill:#000000; fill-opacity:1.0000; 
stroke:#000000; stroke-width:0.0000; stroke-opacity:1; 
stroke-linecap:round; stroke-linejoin:round;fill-rule:evenodd;"
d="M 12.9135,16.7175
12.0135,16.7175
12.0135,15.7175
12.9135,15.7175
Z" /> 
<path style="fill:#000000; fill-opacity:1.0000; 
stroke:#000000; stroke-width:0.0000; stroke-opacity:1; 
stroke-linecap:round; stroke-linejoin:round;fill-rule:evenodd;"
d="M 8.8135,18.3175
7.9135,18.3175
7.9135,17.3175
8.8135,17.3175
Z" /> 
<path style="fill:#000000; fill-opacity:1.0000; 
stroke:#000000; stroke-width:0.0000; stroke-opacity:1; 
stroke-linecap:round; stroke-linejoin:round;fill-rule:evenodd;"
d="M 12.9135,18.3175
12.0135,18.3175
12.0135,17.3175
12.9135,17.3175
Z" /> 
<path style="fill:#000000; fill-opacity:1.0000; 
stroke:#000000; stroke-width:0.0000; stroke-opacity:1; 
stroke-linecap:round; stroke-linejoin:round;fill-rule:evenodd;"
d="M 11.2635,15.8675
9.5635,15.8675
9.5635,15.3175
11.2635,15.3175
Z" /> 
<path style="fill:#000000; fill-opacity:1.0000; 
stroke:#000000; stroke-width:0.0000; stroke-opacity:1; 
stroke-linecap:round; stroke-linejoin:round;fill-rule:evenodd;"
d="M 15.9472,12.4652
15.9608,12.4672
15.9741,12.4705
15.9871,12.4752
15.9995,12.4810
16.0113,12.4881
16.0223,12.4963
16.0325,12.5055
16.0417,12.5157
16.0499,12.5267
16.0570,12.5385
16.0628,12.5509
16.0675,12.5639
16.0708,12.5772
16.0728,12.5908
16.0735,12.6045
16.0735,12.8845
16.0728,12.8982
16.0708,12.9118
16.0675,12.9251
16.0628,12.9381
16.0570,12.9505
16.0499,12.9623
16.0417,12.9733
16.0325,12.9835
16.0223,12.9927
16.0113,13.0009
15.9995,13.0080
15.9871,13.0138
15.9741,13.0185
15.9608,13.0218
15.9472,13.0238
15.9335,13.0245
15.5935,13.0245
15.5798,13.0238
15.5662,13.0218
15.5529,13.0185
15.5399,13.0138
15.5275,13.0080
15.5157,13.0009
15.5047,12.9927
15.4945,12.9835
15.4853,12.9733
15.4771,12.9623
15.4700,12.9505
15.4642,12.9381
15.4595,12.9251
15.4562,12.9118
15.4542,12.8982
15.4535,12.8845
15.4535,12.6045
15.4542,12.5908
15.4562,12.5772
15.4595,12.5639
15.4642,12.5509
15.4700,12.5385
15.4771,12.5267
15.4853,12.5157
15.4945,12.5055
15.5047,12.4963
15.5157,12.4881
15.5275,12.4810
15.5399,12.4752
15.5529,12.4705
15.5662,12.4672
15.5798,12.4652
15.5935,12.4645
15.9335,12.4645
Z" /> 
<path style="fill:#000000; fill-opacity:1.0000; 
stroke:#000000; stroke-width:0.0000; stroke-opacity:1; 
stroke-linecap:round; stroke-linejoin:round;fill-rule:evenodd;"
d="M 15.9472,11.5052
15.9608,11.5072
15.9741,11.5105
15.9871,11.5152
15.9995,11.5210
16.0113,11.5281
16.0223,11.5363
16.0325,11.5455
16.0417,11.5557
16.0499,11.5667
16.0570,11.5785
16.0628,11.5909
16.0675,11.6039
16.0708,11.6172
16.0728,11.6308
16.0735,11.6445
16.0735,11.9245
16.0728,11.9382
16.0708,11.9518
16.0675,11.9651
16.0628,11.9781
16.0570,11.9905
16.0499,12.0023
16.0417,12.0133
16.0325,12.0235
16.0223,12.0327
16.0113,12.0409
15.9995,12.0480
15.9871,12.0538
15.9741,12.0585
15.9608,12.0618
15.9472,12.0638
15.9335,12.0645
15.5935,12.0645
15.5798,12.0638
15.5662,12.0618
15.5529,12.0585
15.5399,12.0538
15.5275,12.0480
15.5157,12.0409
15.5047,12.0327
15.4945,12.0235
15.4853,12.0133
15.4771,12.0023
15.4700,11.9905
15.4642,11.9781
15.4595,11.9651
15.4562,11.9518
15.4542,11.9382
15.4535,11.9245
15.4535,11.6445
15.4542,11.6308
15.4562,11.6172
15.4595,11.6039
15.4642,11.5909
15.4700,11.5785
15.4771,11.5667
15.4853,11.5557
15.4945,11.5455
15.5047,11.5363
15.5157,11.5281
15.5275,11.5210
15.5399,11.5152
15.5529,11.5105
15.5662,11.5072
15.5798,11.5052
15.5935,11.5045
15.9335,11.5045
Z" /> 
<path style="fill:#000000; fill-opacity:1.0000; 
stroke:#000000; stroke-width:0.0000; stroke-opacity:1; 
stroke-linecap:round; stroke-linejoin:round;fill-rule:evenodd;"
d="M 6.2112,9.0842
6.2258,9.0864
6.2400,9.0900
6.2539,9.0949
6.2672,9.1012
6.2798,9.1088
6.2917,9.1175
6.3026,9.1274
6.3125,9.1383
6.3212,9.1502
6.3288,9.1628
6.3351,9.1761
6.3400,9.1900
6.3436,9.2042
6.3458,9.2188
6.3465,9.2335
6.3465,9.5335
6.3458,9.5482
6.3436,9.5628
6.3400,9.5770
6.3351,9.5909
6.3288,9.6042
6.3212,9.6168
6.3125,9.6287
6.3026,9.6396
6.2917,9.6494
6.2798,9.6582
6.2672,9.6658
6.2539,9.6721
6.2400,9.6770
6.2258,9.6806
6.2112,9.6828
6.1965,9.6835
4.9465,9.6835
4.9318,9.6828
4.9172,9.6806
4.9030,9.6770
4.8891,9.6721
4.8758,9.6658
4.8632,9.6582
4.8513,9.6494
4.8404,9.6396
4.8305,9.6287
4.8218,9.6168
4.8142,9.6042
4.8079,9.5909
4.8030,9.5770
4.7994,9.5628
4.7972,9.5482
4.7965,9.5335
4.7965,9.2335
4.7972,9.2188
4.7994,9.2042
4.8030,9.1900
4.8079,9.1761
4.8142,9.1628
4.8218,9.1502
4.8305,9.1383
4.8404,9.1274
4.8513,9.1175
4.8632,9.1088
4.8758,9.1012
4.8891,9.0949
4.9030,9.0900
4.9172,9.0864
4.9318,9.0842
4.9465,9.0835
6.1965,9.0835
Z" /> 
<path style="fill:#000000; fill-opacity:1.0000; 
stroke:#000000; stroke-width:0.0000; stroke-opacity:1; 
stroke-linecap:round; stroke-linejoin:round;fill-rule:evenodd;"
d="M 6.2112,10.0842
6.2258,10.0864
6.2400,10.0900
6.2539,10.0949
6.2672,10.1012
6.2798,10.1088
6.2917,10.1175
6.3026,10.1274
6.3125,10.1383
6.3212,10.1502
6.3288,10.1628
6.3351,10.1761
6.3400,10.1900
6.3436,10.2042
6.3458,10.2188
6.3465,10.2335
6.3465,10.5335
6.3458,10.5482
6.3436,10.5628
6.3400,10.5770
6.3351,10.5909
6.3288,10.6042
6.3212,10.6168
6.3125,10.6287
6.3026,10.6396
6.2917,10.6494
6.2798,10.6582
6.2672,10.6658
6.2539,10.6721
6.2400,10.6770
6.2258,10.6806
6.2112,10.6828
6.1965,10.6835
4.9465,10.6835
4.9318,10.6828
4.9172,10.6806
4.9030,10.6770
4.8891,10.6721
4.8758,10.6658
4.8632,10.6582
4.8513,10.6494
4.8404,10.6396
4.8305,10.6287
4.8218,10.6168
4.8142,10.6042
4.8079,10.5909
4.8030,10.5770
4.7994,10.5628
4.7972,10.5482
4.7965,10.5335
4.7965,10.2335
4.7972,10.2188
4.7994,10.2042
4.8030,10.1900
4.8079,10.1761
4.8142,10.1628
4.8218,10.1502
4.8305,10.1383
4.8404,10.1274
4.8513,10.1175
4.8632,10.1088
4.8758,10.1012
4.8891,10.0949
4.9030,10.0900
4.9172,10.0864
4.9318,10.0842
4.9465,10.0835
6.1965,10.0835
Z" /> 
<path style="fill:#000000; fill-opacity:1.0000; 
stroke:#000000; stroke-width:0.0000; stroke-opacity:1; 
stroke-linecap:round; stroke-linejoin:round;fill-rule:evenodd;"
d="M 6.2112,11.0842
6.2258,11.0864
6.2400,11.0900
6.2539,11.0949
6.2672,11.1012
6.2798,11.1088
6.2917,11.1175
6.3026,11.1274
6.3125,11.1383
6.3212,11.1502
6.3288,11.1628
6.3351,11.1761
6.3400,11.1900
6.3436,11.2042
6.3458,11.2188
6.3465,11.2335
6.3465,11.5335
6.3458,11.5482
6.3436,11.5628
6.3400,11.5770
6.3351,11.5909
6.3288,11.6042
6.3212,11.6168
6.3125,11.6287
6.3026,11.6396
6.2917,11.6494
6.2798,11.6582
6.2672,11.6658
6.2539,11.6721
6.2400,11.6770
6.2258,11.6806
6.2112,11.6828
6.1965,11.6835
4.9465,11.6835
4.9318,11.6828
4.9172,11.6806
4.9030,11.6770
4.8891,11.6721
4.8758,11.6658
4.8632,11.6582
4.8513,11.6494
4.8404,11.6396
4.8305,11.6287
4.8218,11.6168
4.8142,11.6042
4.8079,11.5909
4.8030,11.5770
4.7994,11.5628
4.7972,11.5482
4.7965,11.5335
4.7965,11.2335
4.7972,11.2188
4.7994,11.2042
4.8030,11.1900
4.8079,11.1761
4.8142,11.1628
4.8218,11.1502
4.8305,11.1383
4.8404,11.1274
4.8513,11.1175
4.8632,11.1088
4.8758,11.1012
4.8891,11.0949
4.9030,11.0900
4.9172,11.0864
4.9318,11.0842
4.9465,11.0835
6.1965,11.0835
Z" /> 
<path style="fill:#000000; fill-opacity:1.0000; 
stroke:#000000; stroke-width:0.0000; stroke-opacity:1; 
stroke-linecap:round; stroke-linejoin:round;fill-rule:evenodd;"
d="M 6.2112,12.0842
6.2258,12.0864
6.2400,12.0900
6.2539,12.0949
6.2672,12.1012
6.2798,12.1088
6.2917,12.1175
6.3026,12.1274
6.3125,12.1383
6.3212,12.1502
6.3288,12.1628
6.3351,12.1761
6.3400,12.1900
6.3436,12.2042
6.3458,12.2188
6.3465,12.2335
6.3465,12.5335
6.3458,12.5482
6.3436,12.5628
6.3400,12.5770
6.3351,12.5909
6.3288,12.6042
6.3212,12.6168
6.3125,12.6287
6.3026,12.6396
6.2917,12.6494
6.2798,12.6582
6.2672,12.6658
6.2539,12.6721
6.2400,12.6770
6.2258,12.6806
6.2112,12.6828
6.1965,12.6835
4.9465,12.6835
4.9318,12.6828
4.9172,12.6806
4.9030,12.6770
4.8891,12.6721
4.8758,12.6658
4.8632,12.6582
4.8513,12.6494
4.8404,12.6396
4.8305,12.6287
4.8218,12.6168
4.8142,12.6042
4.8079,12.5909
4.8030,12.5770
4.7994,12.5628
4.7972,12.5482
4.7965,12.5335
4.7965,12.2335
4.7972,12.2188
4.7994,12.2042
4.8030,12.1900
4.8079,12.1761
4.8142,12.1628
4.8218,12.1502
4.8305,12.1383
4.8404,12.1274
4.8513,12.1175
4.8632,12.1088
4.8758,12.1012
4.8891,12.0949
4.9030,12.0900
4.9172,12.0864
4.9318,12.0842
4.9465,12.0835
6.1965,12.0835
Z" /> 
<path style="fill:#000000; fill-opacity:1.0000; 
stroke:#000000; stroke-width:0.0000; stroke-opacity:1; 
stroke-linecap:round; stroke-linejoin:round;fill-rule:evenodd;"
d="M 6.2112,13.0842
6.2258,13.0864
6.2400,13.0900
6.2539,13.0949
6.2672,13.1012
6.2798,13.1088
6.2917,13.1175
6.3026,13.1274
6.3125,13.1383
6.3212,13.1502
6.3288,13.1628
6.3351,13.1761
6.3400,13.1900
6.3436,13.2042
6.3458,13.2188
6.3465,13.2335
6.3465,13.5335
6.3458,13.5482
6.3436,13.5628
6.3400,13.5770
6.3351,13.5909
6.3288,13.6042
6.3212,13.6168
6.3125,13.6287
6.3026,13.6396
6.2917,13.6494
6.2798,13.6582
6.2672,13.6658
6.2539,13.6721
6.2400,13.6770
6.2258,13.6806
6.2112,13.6828
6.1965,13.6835
4.9465,13.6835
4.9318,13.6828
4.9172,13.6806
4.9030,13.6770
4.8891,13.6721
4.8758,13.6658
4.8632,13.6582
4.8513,13.6494
4.8404,13.6396
4.8305,13.6287
4.8218,13.6168
4.8142,13.6042
4.8079,13.5909
4.8030,13.5770
4.7994,13.5628
4.7972,13.5482
4.7965,13.5335
4.7965,13.2335
4.7972,13.2188
4.7994,13.2042
4.8030,13.1900
4.8079,13.1761
4.8142,13.1628
4.8218,13.1502
4.8305,13.1383
4.8404,13.1274
4.8513,13.1175
4.8632,13.1088
4.8758,13.1012
4.8891,13.0949
4.9030,13.0900
4.9172,13.0864
4.9318,13.0842
4.9465,13.0835
6.1965,13.0835
Z" /> 
<path style="fill:#000000; fill-opacity:1.0000; 
stroke:#000000; stroke-width:0.0000; stroke-opacity:1; 
stroke-linecap:round; stroke-linejoin:round;fill-rule:evenodd;"
d="M 6.2112,14.0842
6.2258,14.0864
6.2400,14.0900
6.2539,14.0949
6.2672,14.1012
6.2798,14.1088
6.2917,14.1175
6.3026,14.1274
6.3125,14.1383
6.3212,14.1502
6.3288,14.1628
6.3351,14.1761
6.3400,14.1900
6.3436,14.2042
6.3458,14.2188
6.3465,14.2335
6.3465,14.5335
6.3458,14.5482
6.3436,14.5628
6.3400,14.5770
6.3351,14.5909
6.3288,14.6042
6.3212,14.6168
6.3125,14.6287
6.3026,14.6396
6.2917,14.6494
6.2798,14.6582
6.2672,14.6658
6.2539,14.6721
6.2400,14.6770
6.2258,14.6806
6.2112,14.6828
6.1965,14.6835
4.9465,14.6835
4.9318,14.6828
4.9172,14.6806
4.9030,14.6770
4.8891,14.6721
4.8758,14.6658
4.8632,14.6582
4.8513,14.6494
4.8404,14.6396
4.8305,14.6287
4.8218,14.6168
4.8142,14.6042
4.8079,14.5909
4.8030,14.5770
4.7994,14.5628
4.7972,14.5482
4.7965,14.5335
4.7965,14.2335
4.7972,14.2188
4.7994,14.2042
4.8030,14.1900
4.8079,14.1761
4.8142,14.1628
4.8218,14.1502
4.8305,14.1383
4.8404,14.1274
4.8513,14.1175
4.8632,14.1088
4.8758,14.1012
4.8891,14.0949
4.9030,14.0900
4.9172,14.0864
4.9318,14.0842
4.9465,14.0835
6.1965,14.0835
Z" /> 
<path style="fill:#000000; fill-opacity:1.0000; 
stroke:#000000; stroke-width:0.0000; stroke-opacity:1; 
stroke-linecap:round; stroke-linejoin:round;fill-rule:evenodd;"
d="M 2.3710,7.4847
2.3953,7.4883
2.4191,7.4943
2.4422,7.5025
2.4644,7.5130
2.4854,7.5256
2.5051,7.5402
2.5233,7.5567
2.5397,7.5749
2.5544,7.5946
2.5670,7.6156
2.5775,7.6378
2.5857,7.6609
2.5917,7.6847
2.5953,7.7090
2.5965,7.7335
2.5965,8.4335
2.5953,8.4580
2.5917,8.4823
2.5857,8.5061
2.5775,8.5292
2.5670,8.5513
2.5544,8.5724
2.5397,8.5921
2.5233,8.6103
2.5051,8.6267
2.4854,8.6414
2.4644,8.6540
2.4422,8.6645
2.4191,8.6727
2.3953,8.6787
2.3710,8.6823
2.3465,8.6835
1.0465,8.6835
1.0220,8.6823
0.9977,8.6787
0.9739,8.6727
0.9508,8.6645
0.9286,8.6540
0.9076,8.6414
0.8879,8.6267
0.8697,8.6103
0.8532,8.5921
0.8386,8.5724
0.8260,8.5513
0.8155,8.5292
0.8073,8.5061
0.8013,8.4823
0.7977,8.4580
0.7965,8.4335
0.7965,7.7335
0.7977,7.7090
0.8013,7.6847
0.8073,7.6609
0.8155,7.6378
0.8260,7.6156
0.8386,7.5946
0.8532,7.5749
0.8697,7.5567
0.8879,7.5402
0.9076,7.5256
0.9286,7.5130
0.9508,7.5025
0.9739,7.4943
0.9977,7.4883
1.0220,7.4847
1.0465,7.4835
2.3465,7.4835
Z" /> 
<path style="fill:#000000; fill-opacity:1.0000; 
stroke:#000000; stroke-width:0.0000; stroke-opacity:1; 
stroke-linecap:round; stroke-linejoin:round;fill-rule:evenodd;"
d="M 2.3710,15.0847
2.3953,15.0883
2.4191,15.0943
2.4422,15.1025
2.4644,15.1130
2.4854,15.1256
2.5051,15.1402
2.5233,15.1567
2.5397,15.1749
2.5544,15.1946
2.5670,15.2157
2.5775,15.2378
2.5857,15.2609
2.5917,15.2847
2.5953,15.3090
2.5965,15.3335
2.5965,16.0335
2.5953,16.0580
2.5917,16.0823
2.5857,16.1061
2.5775,16.1292
2.5670,16.1514
2.5544,16.1724
2.5397,16.1921
2.5233,16.2103
2.5051,16.2267
2.4854,16.2414
2.4644,16.2540
2.4422,16.2645
2.4191,16.2727
2.3953,16.2787
2.3710,16.2823
2.3465,16.2835
1.0465,16.2835
1.0220,16.2823
0.9977,16.2787
0.9739,16.2727
0.9508,16.2645
0.9286,16.2540
0.9076,16.2414
0.8879,16.2267
0.8697,16.2103
0.8532,16.1921
0.8386,16.1724
0.8260,16.1514
0.8155,16.1292
0.8073,16.1061
0.8013,16.0823
0.7977,16.0580
0.7965,16.0335
0.7965,15.3335
0.7977,15.3090
0.8013,15.2847
0.8073,15.2609
0.8155,15.2378
0.8260,15.2157
0.8386,15.1946
0.8532,15.1749
0.8697,15.1567
0.8879,15.1402
0.9076,15.1256
0.9286,15.1130
0.9508,15.1025
0.9739,15.0943
0.9977,15.0883
1.0220,15.0847
1.0465,15.0835
2.3465,15.0835
Z" /> 
<path style="fill:#000000; fill-opacity:1.0000; 
stroke:#000000; stroke-width:0.0000; stroke-opacity:1; 
stroke-linecap:round; stroke-linejoin:round;fill-rule:evenodd;"
d="M 14.3897,12.3262
14.4028,12.3281
14.4157,12.3313
14.4282,12.3358
14.4401,12.3414
14.4515,12.3483
14.4621,12.3561
14.4720,12.3650
14.4809,12.3749
14.4887,12.3855
14.4956,12.3969
14.5012,12.4088
14.5057,12.4213
14.5089,12.4342
14.5108,12.4473
14.5115,12.4605
14.5115,12.8305
14.5108,12.8437
14.5089,12.8568
14.5057,12.8697
14.5012,12.8822
14.4956,12.8941
14.4887,12.9055
14.4809,12.9161
14.4720,12.9260
14.4621,12.9349
14.4515,12.9428
14.4401,12.9496
14.4282,12.9552
14.4157,12.9597
14.4028,12.9629
14.3897,12.9649
14.3765,12.9655
14.1065,12.9655
14.0933,12.9649
14.0802,12.9629
14.0673,12.9597
14.0548,12.9552
14.0429,12.9496
14.0315,12.9428
14.0209,12.9349
14.0110,12.9260
14.0021,12.9161
13.9942,12.9055
13.9874,12.8941
13.9818,12.8822
13.9773,12.8697
13.9741,12.8568
13.9721,12.8437
13.9715,12.8305
13.9715,12.4605
13.9721,12.4473
13.9741,12.4342
13.9773,12.4213
13.9818,12.4088
13.9874,12.3969
13.9942,12.3855
14.0021,12.3749
14.0110,12.3650
14.0209,12.3561
14.0315,12.3483
14.0429,12.3414
14.0548,12.3358
14.0673,12.3313
14.0802,12.3281
14.0933,12.3262
14.1065,12.3255
14.3765,12.3255
Z" /> 
<path style="fill:#000000; fill-opacity:1.0000; 
stroke:#000000; stroke-width:0.0000; stroke-opacity:1; 
stroke-linecap:round; stroke-linejoin:round;fill-rule:evenodd;"
d="M 13.3697,12.3262
13.3828,12.3281
13.3957,12.3313
13.4082,12.3358
13.4201,12.3414
13.4315,12.3483
13.4421,12.3561
13.4520,12.3650
13.4609,12.3749
13.4688,12.3855
13.4756,12.3969
13.4812,12.4088
13.4857,12.4213
13.4889,12.4342
13.4909,12.4473
13.4915,12.4605
13.4915,12.8305
13.4909,12.8437
13.4889,12.8568
13.4857,12.8697
13.4812,12.8822
13.4756,12.8941
13.4688,12.9055
13.4609,12.9161
13.4520,12.9260
13.4421,12.9349
13.4315,12.9428
13.4201,12.9496
13.4082,12.9552
13.3957,12.9597
13.3828,12.9629
13.3697,12.9649
13.3565,12.9655
13.0865,12.9655
13.0733,12.9649
13.0602,12.9629
13.0473,12.9597
13.0348,12.9552
13.0229,12.9496
13.0115,12.9428
13.0009,12.9349
12.9910,12.9260
12.9821,12.9161
12.9742,12.9055
12.9674,12.8941
12.9618,12.8822
12.9573,12.8697
12.9541,12.8568
12.9521,12.8437
12.9515,12.8305
12.9515,12.4605
12.9521,12.4473
12.9541,12.4342
12.9573,12.4213
12.9618,12.4088
12.9674,12.3969
12.9742,12.3855
12.9821,12.3749
12.9910,12.3650
13.0009,12.3561
13.0115,12.3483
13.0229,12.3414
13.0348,12.3358
13.0473,12.3313
13.0602,12.3281
13.0733,12.3262
13.0865,12.3255
13.3565,12.3255
Z" /> 
<path style="fill:#000000; fill-opacity:1.0000; 
stroke:#000000; stroke-width:0.0000; stroke-opacity:1; 
stroke-linecap:round; stroke-linejoin:round;fill-rule:evenodd;"
d="M 16.1685,19.5435
14.8185,19.5435
14.8185,18.1935
16.1685,18.1935
Z" /> 
<path style="fill:#000000; fill-opacity:1.0000; 
stroke:#000000; stroke-width:0.0000; stroke-opacity:1; 
stroke-linecap:round; stroke-linejoin:round;fill-rule:evenodd;"
d="M 15.5597,16.1967
15.6252,16.2065
15.6894,16.2226
15.7518,16.2449
15.8117,16.2732
15.8685,16.3073
15.9217,16.3467
15.9708,16.3912
16.0153,16.4403
16.0547,16.4935
16.0888,16.5503
16.1171,16.6102
16.1394,16.6726
16.1555,16.7368
16.1653,16.8023
16.1685,16.8685
16.1653,16.9347
16.1555,17.0002
16.1394,17.0644
16.1171,17.1268
16.0888,17.1867
16.0547,17.2435
16.0153,17.2967
15.9708,17.3458
15.9217,17.3903
15.8685,17.4297
15.8117,17.4638
15.7518,17.4921
15.6894,17.5144
15.6252,17.5305
15.5597,17.5403
15.4935,17.5435
15.4273,17.5403
15.3618,17.5305
15.2976,17.5144
15.2352,17.4921
15.1753,17.4638
15.1185,17.4297
15.0653,17.3903
15.0162,17.3458
14.9717,17.2967
14.9323,17.2435
14.8982,17.1867
14.8699,17.1268
14.8476,17.0644
14.8315,17.0002
14.8217,16.9347
14.8185,16.8685
14.8217,16.8023
14.8315,16.7368
14.8476,16.6726
14.8699,16.6102
14.8982,16.5503
14.9323,16.4935
14.9717,16.4403
15.0162,16.3912
15.0653,16.3467
15.1185,16.3073
15.1753,16.2732
15.2352,16.2449
15.2976,16.2226
15.3618,16.2065
15.4273,16.1967
15.4935,16.1935
Z" /> 
<path style="fill:#000000; fill-opacity:1.0000; 
stroke:#000000; stroke-width:0.0000; stroke-opacity:1; 
stroke-linecap:round; stroke-linejoin:round;fill-rule:evenodd;"
d="M 17.5597,18.1967
17.6252,18.2065
17.6894,18.2226
17.7518,18.2449
17.8117,18.2732
17.8685,18.3073
17.9217,18.3467
17.9708,18.3912
18.0153,18.4403
18.0547,18.4935
18.0888,18.5503
18.1171,18.6102
18.1394,18.6726
18.1555,18.7368
18.1653,18.8023
18.1685,18.8685
18.1653,18.9347
18.1555,19.0002
18.1394,19.0644
18.1171,19.1268
18.0888,19.1867
18.0547,19.2435
18.0153,19.2967
17.9708,19.3458
17.9217,19.3903
17.8685,19.4297
17.8117,19.4638
17.7518,19.4921
17.6894,19.5144
17.6252,19.5305
17.5597,19.5403
17.4935,19.5435
17.4273,19.5403
17.3618,19.5305
17.2976,19.5144
17.2352,19.4921
17.1753,19.4638
17.1185,19.4297
17.0653,19.3903
17.0162,19.3458
16.9717,19.2967
16.9323,19.2435
16.8982,19.1867
16.8699,19.1268
16.8476,19.0644
16.8315,19.0002
16.8217,18.9347
16.8185,18.8685
16.8217,18.8023
16.8315,18.7368
16.8476,18.6726
16.8699,18.6102
16.8982,18.5503
16.9323,18.4935
16.9717,18.4403
17.0162,18.3912
17.0653,18.3467
17.1185,18.3073
17.1753,18.2732
17.2352,18.2449
17.2976,18.2226
17.3618,18.2065
17.4273,18.1967
17.4935,18.1935
Z" /> 
<path style="fill:#000000; fill-opacity:1.0000; 
stroke:#000000; stroke-width:0.0000; stroke-opacity:1; 
stroke-linecap:round; stroke-linejoin:round;fill-rule:evenodd;"
d="M 17.5597,16.1967
17.6252,16.2065
17.6894,16.2226
17.7518,16.2449
17.8117,16.2732
17.8685,16.3073
17.9217,16.3467
17.9708,16.3912
18.0153,16.4403
18.0547,16.4935
18.0888,16.5503
18.1171,16.6102
18.1394,16.6726
18.1555,16.7368
18.1653,16.8023
18.1685,16.8685
18.1653,16.9347
18.1555,17.0002
18.1394,17.0644
18.1171,17.1268
18.0888,17.1867
18.0547,17.2435
18.0153,17.2967
17.9708,17.3458
17.9217,17.3903
17.8685,17.4297
17.8117,17.4638
17.7518,17.4921
17.6894,17.5144
17.6252,17.5305
17.5597,17.5403
17.4935,17.5435
17.4273,17.5403
17.3618,17.5305
17.2976,17.5144
17.2352,17.4921
17.1753,17.4638
17.1185,17.4297
17.0653,17.3903
17.0162,17.3458
16.9717,17.2967
16.9323,17.2435
16.8982,17.1867
16.8699,17.1268
16.8476,17.0644
16.8315,17.0002
16.8217,16.9347
16.8185,16.8685
16.8217,16.8023
16.8315,16.7368
16.8476,16.6726
16.8699,16.6102
16.8982,16.5503
16.9323,16.4935
16.9717,16.4403
17.0162,16.3912
17.0653,16.3467
17.1185,16.3073
17.1753,16.2732
17.2352,16.2449
17.2976,16.2226
17.3618,16.2065
17.4273,16.1967
17.4935,16.1935
Z" /> 
<path style="fill:#000000; fill-opacity:1.0000; 
stroke:#000000; stroke-width:0.0000; stroke-opacity:1; 
stroke-linecap:round; stroke-linejoin:round;fill-rule:evenodd;"
d="M 19.5597,18.1967
19.6252,18.2065
19.6894,18.2226
19.7518,18.2449
19.8117,18.2732
19.8685,18.3073
19.9217,18.3467
19.9708,18.3912
20.0153,18.4403
20.0547,18.4935
20.0888,18.5503
20.1171,18.6102
20.1394,18.6726
20.1555,18.7368
20.1653,18.8023
20.1685,18.8685
20.1653,18.9347
20.1555,19.0002
20.1394,19.0644
20.1171,19.1268
20.0888,19.1867
20.0547,19.2435
20.0153,19.2967
19.9708,19.3458
19.9217,19.3903
19.8685,19.4297
19.8117,19.4638
19.7518,19.4921
19.6894,19.5144
19.6252,19.5305
19.5597,19.5403
19.4935,19.5435
19.4273,19.5403
19.3618,19.5305
19.2976,19.5144
19.2352,19.4921
19.1753,19.4638
19.1185,19.4297
19.0653,19.3903
19.0162,19.3458
18.9717,19.2967
18.9323,19.2435
18.8982,19.1867
18.8699,19.1268
18.8476,19.0644
18.8315,19.0002
18.8217,18.9347
18.8185,18.8685
18.8217,18.8023
18.8315,18.7368
18.8476,18.6726
18.8699,18.6102
18.8982,18.5503
18.9323,18.4935
18.9717,18.4403
19.0162,18.3912
19.0653,18.3467
19.1185,18.3073
19.1753,18.2732
19.2352,18.2449
19.2976,18.2226
19.3618,18.2065
19.4273,18.1967
19.4935,18.1935
Z" /> 
<path style="fill:#000000; fill-opacity:1.0000; 
stroke:#000000; stroke-width:0.0000; stroke-opacity:1; 
stroke-linecap:round; stroke-linejoin:round;fill-rule:evenodd;"
d="M 19.5597,16.1967
19.6252,16.2065
19.6894,16.2226
19.7518,16.2449
19.8117,16.2732
19.8685,16.3073
19.9217,16.3467
19.9708,16.3912
20.0153,16.4403
20.0547,16.4935
20.0888,16.5503
20.1171,16.6102
20.1394,16.6726
20.1555,16.7368
20.1653,16.8023
20.1685,16.8685
20.1653,16.9347
20.1555,17.0002
20.1394,17.0644
20.1171,17.1268
20.0888,17.1867
20.0547,17.2435
20.0153,17.2967
19.9708,17.3458
19.9217,17.3903
19.8685,17.4297
19.8117,17.4638
19.7518,17.4921
19.6894,17.5144
19.6252,17.5305
19.5597,17.5403
19.4935,17.5435
19.4273,17.5403
19.3618,17.5305
19.2976,17.5144
19.2352,17.4921
19.1753,17.4638
19.1185,17.4297
19.0653,17.3903
19.0162,17.3458
18.9717,17.2967
18.9323,17.2435
18.8982,17.1867
18.8699,17.1268
18.8476,17.0644
18.8315,17.0002
18.8217,16.9347
18.8185,16.8685
18.8217,16.8023
18.8315,16.7368
18.8476,16.6726
18.8699,16.6102
18.8982,16.5503
18.9323,16.4935
18.9717,16.4403
19.0162,16.3912
19.0653,16.3467
19.1185,16.3073
19.1753,16.2732
19.2352,16.2449
19.2976,16.2226
19.3618,16.2065
19.4273,16.1967
19.4935,16.1935
Z" /> 
<path style="fill:#000000; fill-opacity:1.0000; 
stroke:#000000; stroke-width:0.0000; stroke-opacity:1; 
stroke-linecap:round; stroke-linejoin:round;fill-rule:evenodd;"
d="M 14.3897,11.1831
14.4028,11.1851
14.4157,11.1883
14.4282,11.1928
14.4401,11.1984
14.4515,11.2052
14.4621,11.2131
14.4720,11.2220
14.4809,11.2319
14.4887,11.2425
14.4956,11.2539
14.5012,11.2658
14.5057,11.2783
14.5089,11.2912
14.5108,11.3043
14.5115,11.3175
14.5115,11.6875
14.5108,11.7007
14.5089,11.7138
14.5057,11.7267
14.5012,11.7392
14.4956,11.7511
14.4887,11.7625
14.4809,11.7731
14.4720,11.7830
14.4621,11.7919
14.4515,11.7997
14.4401,11.8066
14.4282,11.8122
14.4157,11.8167
14.4028,11.8199
14.3897,11.8218
14.3765,11.8225
14.1065,11.8225
14.0933,11.8218
14.0802,11.8199
14.0673,11.8167
14.0548,11.8122
14.0429,11.8066
14.0315,11.7997
14.0209,11.7919
14.0110,11.7830
14.0021,11.7731
13.9942,11.7625
13.9874,11.7511
13.9818,11.7392
13.9773,11.7267
13.9741,11.7138
13.9721,11.7007
13.9715,11.6875
13.9715,11.3175
13.9721,11.3043
13.9741,11.2912
13.9773,11.2783
13.9818,11.2658
13.9874,11.2539
13.9942,11.2425
14.0021,11.2319
14.0110,11.2220
14.0209,11.2131
14.0315,11.2052
14.0429,11.1984
14.0548,11.1928
14.0673,11.1883
14.0802,11.1851
14.0933,11.1831
14.1065,11.1825
14.3765,11.1825
Z" /> 
<path style="fill:#000000; fill-opacity:1.0000; 
stroke:#000000; stroke-width:0.0000; stroke-opacity:1; 
stroke-linecap:round; stroke-linejoin:round;fill-rule:evenodd;"
d="M 13.3697,11.1831
13.3828,11.1851
13.3957,11.1883
13.4082,11.1928
13.4201,11.1984
13.4315,11.2052
13.4421,11.2131
13.4520,11.2220
13.4609,11.2319
13.4688,11.2425
13.4756,11.2539
13.4812,11.2658
13.4857,11.2783
13.4889,11.2912
13.4909,11.3043
13.4915,11.3175
13.4915,11.6875
13.4909,11.7007
13.4889,11.7138
13.4857,11.7267
13.4812,11.7392
13.4756,11.7511
13.4688,11.7625
13.4609,11.7731
13.4520,11.7830
13.4421,11.7919
13.4315,11.7997
13.4201,11.8066
13.4082,11.8122
13.3957,11.8167
13.3828,11.8199
13.3697,11.8218
13.3565,11.8225
13.0865,11.8225
13.0733,11.8218
13.0602,11.8199
13.0473,11.8167
13.0348,11.8122
13.0229,11.8066
13.0115,11.7997
13.0009,11.7919
12.9910,11.7830
12.9821,11.7731
12.9742,11.7625
12.9674,11.7511
12.9618,11.7392
12.9573,11.7267
12.9541,11.7138
12.9521,11.7007
12.9515,11.6875
12.9515,11.3175
12.9521,11.3043
12.9541,11.2912
12.9573,11.2783
12.9618,11.2658
12.9674,11.2539
12.9742,11.2425
12.9821,11.2319
12.9910,11.2220
13.0009,11.2131
13.0115,11.2052
13.0229,11.1984
13.0348,11.1928
13.0473,11.1883
13.0602,11.1851
13.0733,11.1831
13.0865,11.1825
13.3565,11.1825
Z" /> 
<path style="fill:#000000; fill-opacity:1.0000; 
stroke:#000000; stroke-width:0.0000; stroke-opacity:1; 
stroke-linecap:round; stroke-linejoin:round;fill-rule:evenodd;"
d="M 7.8872,4.7272
7.9018,4.7294
7.9160,4.7330
7.9299,4.7379
7.9432,4.7442
7.9558,4.7518
7.9677,4.7605
7.9786,4.7704
7.9884,4.7813
7.9972,4.7932
8.0048,4.8058
8.0111,4.8191
8.0160,4.8330
8.0196,4.8472
8.0218,4.8618
8.0225,4.8765
8.0225,6.1265
8.0218,6.1412
8.0196,6.1558
8.0160,6.1700
8.0111,6.1839
8.0048,6.1972
7.9972,6.2098
7.9884,6.2217
7.9786,6.2326
7.9677,6.2424
7.9558,6.2512
7.9432,6.2588
7.9299,6.2651
7.9160,6.2700
7.9018,6.2736
7.8872,6.2758
7.8725,6.2765
7.5725,6.2765
7.5578,6.2758
7.5432,6.2736
7.5290,6.2700
7.5151,6.2651
7.5018,6.2588
7.4892,6.2512
7.4773,6.2424
7.4664,6.2326
7.4566,6.2217
7.4478,6.2098
7.4402,6.1972
7.4339,6.1839
7.4290,6.1700
7.4254,6.1558
7.4232,6.1412
7.4225,6.1265
7.4225,4.8765
7.4232,4.8618
7.4254,4.8472
7.4290,4.8330
7.4339,4.8191
7.4402,4.8058
7.4478,4.7932
7.4566,4.7813
7.4664,4.7704
7.4773,4.7605
7.4892,4.7518
7.5018,4.7442
7.5151,4.7379
7.5290,4.7330
7.5432,4.7294
7.5578,4.7272
7.5725,4.7265
7.8725,4.7265
Z" /> 
<path style="fill:#000000; fill-opacity:1.0000; 
stroke:#000000; stroke-width:0.0000; stroke-opacity:1; 
stroke-linecap:round; stroke-linejoin:round;fill-rule:evenodd;"
d="M 6.8872,4.7272
6.9018,4.7294
6.9160,4.7330
6.9299,4.7379
6.9432,4.7442
6.9558,4.7518
6.9677,4.7605
6.9786,4.7704
6.9884,4.7813
6.9972,4.7932
7.0048,4.8058
7.0111,4.8191
7.0160,4.8330
7.0196,4.8472
7.0218,4.8618
7.0225,4.8765
7.0225,6.1265
7.0218,6.1412
7.0196,6.1558
7.0160,6.1700
7.0111,6.1839
7.0048,6.1972
6.9972,6.2098
6.9884,6.2217
6.9786,6.2326
6.9677,6.2424
6.9558,6.2512
6.9432,6.2588
6.9299,6.2651
6.9160,6.2700
6.9018,6.2736
6.8872,6.2758
6.8725,6.2765
6.5725,6.2765
6.5578,6.2758
6.5432,6.2736
6.5290,6.2700
6.5151,6.2651
6.5018,6.2588
6.4892,6.2512
6.4773,6.2424
6.4664,6.2326
6.4566,6.2217
6.4478,6.2098
6.4402,6.1972
6.4339,6.1839
6.4290,6.1700
6.4254,6.1558
6.4232,6.1412
6.4225,6.1265
6.4225,4.8765
6.4232,4.8618
6.4254,4.8472
6.4290,4.8330
6.4339,4.8191
6.4402,4.8058
6.4478,4.7932
6.4566,4.7813
6.4664,4.7704
6.4773,4.7605
6.4892,4.7518
6.5018,4.7442
6.5151,4.7379
6.5290,4.7330
6.5432,4.7294
6.5578,4.7272
6.5725,4.7265
6.8725,4.7265
Z" /> 
<path style="fill:#000000; fill-opacity:1.0000; 
stroke:#000000; stroke-width:0.0000; stroke-opacity:1; 
stroke-linecap:round; stroke-linejoin:round;fill-rule:evenodd;"
d="M 5.8872,4.7272
5.9018,4.7294
5.9160,4.7330
5.9299,4.7379
5.9432,4.7442
5.9558,4.7518
5.9677,4.7605
5.9786,4.7704
5.9884,4.7813
5.9972,4.7932
6.0048,4.8058
6.0111,4.8191
6.0160,4.8330
6.0196,4.8472
6.0218,4.8618
6.0225,4.8765
6.0225,6.1265
6.0218,6.1412
6.0196,6.1558
6.0160,6.1700
6.0111,6.1839
6.0048,6.1972
5.9972,6.2098
5.9884,6.2217
5.9786,6.2326
5.9677,6.2424
5.9558,6.2512
5.9432,6.2588
5.9299,6.2651
5.9160,6.2700
5.9018,6.2736
5.8872,6.2758
5.8725,6.2765
5.5725,6.2765
5.5578,6.2758
5.5432,6.2736
5.5290,6.2700
5.5151,6.2651
5.5018,6.2588
5.4892,6.2512
5.4773,6.2424
5.4664,6.2326
5.4566,6.2217
5.4478,6.2098
5.4402,6.1972
5.4339,6.1839
5.4290,6.1700
5.4254,6.1558
5.4232,6.1412
5.4225,6.1265
5.4225,4.8765
5.4232,4.8618
5.4254,4.8472
5.4290,4.8330
5.4339,4.8191
5.4402,4.8058
5.4478,4.7932
5.4566,4.7813
5.4664,4.7704
5.4773,4.7605
5.4892,4.7518
5.5018,4.7442
5.5151,4.7379
5.5290,4.7330
5.5432,4.7294
5.5578,4.7272
5.5725,4.7265
5.8725,4.7265
Z" /> 
<path style="fill:#000000; fill-opacity:1.0000; 
stroke:#000000; stroke-width:0.0000; stroke-opacity:1; 
stroke-linecap:round; stroke-linejoin:round;fill-rule:evenodd;"
d="M 4.8872,4.7272
4.9018,4.7294
4.9160,4.7330
4.9299,4.7379
4.9432,4.7442
4.9558,4.7518
4.9677,4.7605
4.9786,4.7704
4.9884,4.7813
4.9972,4.7932
5.0048,4.8058
5.0111,4.8191
5.0160,4.8330
5.0196,4.8472
5.0218,4.8618
5.0225,4.8765
5.0225,6.1265
5.0218,6.1412
5.0196,6.1558
5.0160,6.1700
5.0111,6.1839
5.0048,6.1972
4.9972,6.2098
4.9884,6.2217
4.9786,6.2326
4.9677,6.2424
4.9558,6.2512
4.9432,6.2588
4.9299,6.2651
4.9160,6.2700
4.9018,6.2736
4.8872,6.2758
4.8725,6.2765
4.5725,6.2765
4.5578,6.2758
4.5432,6.2736
4.5290,6.2700
4.5151,6.2651
4.5018,6.2588
4.4892,6.2512
4.4773,6.2424
4.4664,6.2326
4.4566,6.2217
4.4478,6.2098
4.4402,6.1972
4.4339,6.1839
4.4290,6.1700
4.4254,6.1558
4.4232,6.1412
4.4225,6.1265
4.4225,4.8765
4.4232,4.8618
4.4254,4.8472
4.4290,4.8330
4.4339,4.8191
4.4402,4.8058
4.4478,4.7932
4.4566,4.7813
4.4664,4.7704
4.4773,4.7605
4.4892,4.7518
4.5018,4.7442
4.5151,4.7379
4.5290,4.7330
4.5432,4.7294
4.5578,4.7272
4.5725,4.7265
4.8725,4.7265
Z" /> 
<path style="fill:#000000; fill-opacity:1.0000; 
stroke:#000000; stroke-width:0.0000; stroke-opacity:1; 
stroke-linecap:round; stroke-linejoin:round;fill-rule:evenodd;"
d="M 3.8872,4.7272
3.9018,4.7294
3.9160,4.7330
3.9299,4.7379
3.9432,4.7442
3.9558,4.7518
3.9677,4.7605
3.9786,4.7704
3.9884,4.7813
3.9972,4.7932
4.0048,4.8058
4.0111,4.8191
4.0160,4.8330
4.0196,4.8472
4.0218,4.8618
4.0225,4.8765
4.0225,6.1265
4.0218,6.1412
4.0196,6.1558
4.0160,6.1700
4.0111,6.1839
4.0048,6.1972
3.9972,6.2098
3.9884,6.2217
3.9786,6.2326
3.9677,6.2424
3.9558,6.2512
3.9432,6.2588
3.9299,6.2651
3.9160,6.2700
3.9018,6.2736
3.8872,6.2758
3.8725,6.2765
3.5725,6.2765
3.5578,6.2758
3.5432,6.2736
3.5290,6.2700
3.5151,6.2651
3.5018,6.2588
3.4892,6.2512
3.4773,6.2424
3.4664,6.2326
3.4566,6.2217
3.4478,6.2098
3.4402,6.1972
3.4339,6.1839
3.4290,6.1700
3.4254,6.1558
3.4232,6.1412
3.4225,6.1265
3.4225,4.8765
3.4232,4.8618
3.4254,4.8472
3.4290,4.8330
3.4339,4.8191
3.4402,4.8058
3.4478,4.7932
3.4566,4.7813
3.4664,4.7704
3.4773,4.7605
3.4892,4.7518
3.5018,4.7442
3.5151,4.7379
3.5290,4.7330
3.5432,4.7294
3.5578,4.7272
3.5725,4.7265
3.8725,4.7265
Z" /> 
<path style="fill:#000000; fill-opacity:1.0000; 
stroke:#000000; stroke-width:0.0000; stroke-opacity:1; 
stroke-linecap:round; stroke-linejoin:round;fill-rule:evenodd;"
d="M 2.8872,4.7272
2.9018,4.7294
2.9160,4.7330
2.9299,4.7379
2.9432,4.7442
2.9558,4.7518
2.9677,4.7605
2.9786,4.7704
2.9884,4.7813
2.9972,4.7932
3.0048,4.8058
3.0111,4.8191
3.0160,4.8330
3.0196,4.8472
3.0218,4.8618
3.0225,4.8765
3.0225,6.1265
3.0218,6.1412
3.0196,6.1558
3.0160,6.1700
3.0111,6.1839
3.0048,6.1972
2.9972,6.2098
2.9884,6.2217
2.9786,6.2326
2.9677,6.2424
2.9558,6.2512
2.9432,6.2588
2.9299,6.2651
2.9160,6.2700
2.9018,6.2736
2.8872,6.2758
2.8725,6.2765
2.5725,6.2765
2.5578,6.2758
2.5432,6.2736
2.5290,6.2700
2.5151,6.2651
2.5018,6.2588
2.4892,6.2512
2.4773,6.2424
2.4664,6.2326
2.4566,6.2217
2.4478,6.2098
2.4402,6.1972
2.4339,6.1839
2.4290,6.1700
2.4254,6.1558
2.4232,6.1412
2.4225,6.1265
2.4225,4.8765
2.4232,4.8618
2.4254,4.8472
2.4290,4.8330
2.4339,4.8191
2.4402,4.8058
2.4478,4.7932
2.4566,4.7813
2.4664,4.7704
2.4773,4.7605
2.4892,4.7518
2.5018,4.7442
2.5151,4.7379
2.5290,4.7330
2.5432,4.7294
2.5578,4.7272
2.5725,4.7265
2.8725,4.7265
Z" /> 
<path style="fill:#000000; fill-opacity:1.0000; 
stroke:#000000; stroke-width:0.0000; stroke-opacity:1; 
stroke-linecap:round; stroke-linejoin:round;fill-rule:evenodd;"
d="M 9.3970,0.7277
9.4213,0.7313
9.4451,0.7373
9.4682,0.7455
9.4903,0.7560
9.5114,0.7686
9.5311,0.7833
9.5493,0.7997
9.5657,0.8179
9.5804,0.8376
9.5930,0.8586
9.6035,0.8808
9.6117,0.9039
9.6177,0.9277
9.6213,0.9520
9.6225,0.9765
9.6225,2.2765
9.6213,2.3010
9.6177,2.3253
9.6117,2.3491
9.6035,2.3722
9.5930,2.3943
9.5804,2.4154
9.5657,2.4351
9.5493,2.4533
9.5311,2.4697
9.5114,2.4844
9.4903,2.4970
9.4682,2.5075
9.4451,2.5157
9.4213,2.5217
9.3970,2.5253
9.3725,2.5265
8.6725,2.5265
8.6480,2.5253
8.6237,2.5217
8.5999,2.5157
8.5768,2.5075
8.5546,2.4970
8.5336,2.4844
8.5139,2.4697
8.4957,2.4533
8.4793,2.4351
8.4646,2.4154
8.4520,2.3943
8.4415,2.3722
8.4333,2.3491
8.4273,2.3253
8.4237,2.3010
8.4225,2.2765
8.4225,0.9765
8.4237,0.9520
8.4273,0.9277
8.4333,0.9039
8.4415,0.8808
8.4520,0.8586
8.4646,0.8376
8.4793,0.8179
8.4957,0.7997
8.5139,0.7833
8.5336,0.7686
8.5546,0.7560
8.5768,0.7455
8.5999,0.7373
8.6237,0.7313
8.6480,0.7277
8.6725,0.7265
9.3725,0.7265
Z" /> 
<path style="fill:#000000; fill-opacity:1.0000; 
stroke:#000000; stroke-width:0.0000; stroke-opacity:1; 
stroke-linecap:round; stroke-linejoin:round;fill-rule:evenodd;"
d="M 1.7970,0.7277
1.8213,0.7313
1.8451,0.7373
1.8682,0.7455
1.8903,0.7560
1.9114,0.7686
1.9311,0.7833
1.9493,0.7997
1.9657,0.8179
1.9804,0.8376
1.9930,0.8586
2.0035,0.8808
2.0117,0.9039
2.0177,0.9277
2.0213,0.9520
2.0225,0.9765
2.0225,2.2765
2.0213,2.3010
2.0177,2.3253
2.0117,2.3491
2.0035,2.3722
1.9930,2.3943
1.9804,2.4154
1.9657,2.4351
1.9493,2.4533
1.9311,2.4697
1.9114,2.4844
1.8903,2.4970
1.8682,2.5075
1.8451,2.5157
1.8213,2.5217
1.7970,2.5253
1.7725,2.5265
1.0725,2.5265
1.0480,2.5253
1.0237,2.5217
0.9999,2.5157
0.9768,2.5075
0.9546,2.4970
0.9336,2.4844
0.9139,2.4697
0.8957,2.4533
0.8792,2.4351
0.8646,2.4154
0.8520,2.3943
0.8415,2.3722
0.8333,2.3491
0.8273,2.3253
0.8237,2.3010
0.8225,2.2765
0.8225,0.9765
0.8237,0.9520
0.8273,0.9277
0.8333,0.9039
0.8415,0.8808
0.8520,0.8586
0.8646,0.8376
0.8792,0.8179
0.8957,0.7997
0.9139,0.7833
0.9336,0.7686
0.9546,0.7560
0.9768,0.7455
0.9999,0.7373
1.0237,0.7313
1.0480,0.7277
1.0725,0.7265
1.7725,0.7265
Z" /> 
<path style="fill:#000000; fill-opacity:1.0000; 
stroke:#000000; stroke-width:0.0000; stroke-opacity:1; 
stroke-linecap:round; stroke-linejoin:round;fill-rule:evenodd;"
d="M 9.0152,11.8822
9.0288,11.8842
9.0421,11.8875
9.0551,11.8922
9.0675,11.8980
9.0793,11.9051
9.0903,11.9133
9.1005,11.9225
9.1097,11.9327
9.1179,11.9437
9.1250,11.9555
9.1308,11.9679
9.1355,11.9809
9.1388,11.9942
9.1408,12.0078
9.1415,12.0215
9.1415,12.3615
9.1408,12.3752
9.1388,12.3888
9.1355,12.4021
9.1308,12.4151
9.1250,12.4275
9.1179,12.4393
9.1097,12.4503
9.1005,12.4605
9.0903,12.4697
9.0793,12.4779
9.0675,12.4850
9.0551,12.4908
9.0421,12.4955
9.0288,12.4988
9.0152,12.5008
9.0015,12.5015
8.7215,12.5015
8.7078,12.5008
8.6942,12.4988
8.6809,12.4955
8.6679,12.4908
8.6555,12.4850
8.6437,12.4779
8.6327,12.4697
8.6225,12.4605
8.6133,12.4503
8.6051,12.4393
8.5980,12.4275
8.5922,12.4151
8.5875,12.4021
8.5842,12.3888
8.5822,12.3752
8.5815,12.3615
8.5815,12.0215
8.5822,12.0078
8.5842,11.9942
8.5875,11.9809
8.5922,11.9679
8.5980,11.9555
8.6051,11.9437
8.6133,11.9327
8.6225,11.9225
8.6327,11.9133
8.6437,11.9051
8.6555,11.8980
8.6679,11.8922
8.6809,11.8875
8.6942,11.8842
8.7078,11.8822
8.7215,11.8815
9.0015,11.8815
Z" /> 
<path style="fill:#000000; fill-opacity:1.0000; 
stroke:#000000; stroke-width:0.0000; stroke-opacity:1; 
stroke-linecap:round; stroke-linejoin:round;fill-rule:evenodd;"
d="M 8.0552,11.8822
8.0688,11.8842
8.0821,11.8875
8.0951,11.8922
8.1075,11.8980
8.1193,11.9051
8.1303,11.9133
8.1405,11.9225
8.1497,11.9327
8.1579,11.9437
8.1650,11.9555
8.1708,11.9679
8.1755,11.9809
8.1788,11.9942
8.1808,12.0078
8.1815,12.0215
8.1815,12.3615
8.1808,12.3752
8.1788,12.3888
8.1755,12.4021
8.1708,12.4151
8.1650,12.4275
8.1579,12.4393
8.1497,12.4503
8.1405,12.4605
8.1303,12.4697
8.1193,12.4779
8.1075,12.4850
8.0951,12.4908
8.0821,12.4955
8.0688,12.4988
8.0552,12.5008
8.0415,12.5015
7.7615,12.5015
7.7478,12.5008
7.7342,12.4988
7.7209,12.4955
7.7079,12.4908
7.6955,12.4850
7.6837,12.4779
7.6727,12.4697
7.6625,12.4605
7.6533,12.4503
7.6451,12.4393
7.6380,12.4275
7.6322,12.4151
7.6275,12.4021
7.6242,12.3888
7.6222,12.3752
7.6215,12.3615
7.6215,12.0215
7.6222,12.0078
7.6242,11.9942
7.6275,11.9809
7.6322,11.9679
7.6380,11.9555
7.6451,11.9437
7.6533,11.9327
7.6625,11.9225
7.6727,11.9133
7.6837,11.9051
7.6955,11.8980
7.7079,11.8922
7.7209,11.8875
7.7342,11.8842
7.7478,11.8822
7.7615,11.8815
8.0415,11.8815
Z" /> 
<circle cx="13.2235" cy="2.9935" r="1.6000" /> 
<path style="fill:#000000; fill-opacity:1.0000; 
stroke:#000000; stroke-width:0.0000; stroke-opacity:1; 
stroke-linecap:round; stroke-linejoin:round;fill-rule:evenodd;"
d="M 18.9602,12.6222
18.9748,12.6244
18.9890,12.6280
19.0029,12.6329
19.0162,12.6392
19.0288,12.6468
19.0407,12.6555
19.0516,12.6654
19.0615,12.6763
19.0702,12.6882
19.0778,12.7008
19.0841,12.7141
19.0890,12.7280
19.0926,12.7422
19.0948,12.7568
19.0955,12.7715
19.0955,14.4215
19.0948,14.4362
19.0926,14.4508
19.0890,14.4650
19.0841,14.4789
19.0778,14.4922
19.0702,14.5048
19.0615,14.5167
19.0516,14.5276
19.0407,14.5374
19.0288,14.5462
19.0162,14.5538
19.0029,14.5601
18.9890,14.5650
18.9748,14.5686
18.9602,14.5708
18.9455,14.5715
18.6455,14.5715
18.6308,14.5708
18.6162,14.5686
18.6020,14.5650
18.5881,14.5601
18.5748,14.5538
18.5622,14.5462
18.5503,14.5374
18.5394,14.5276
18.5296,14.5167
18.5208,14.5048
18.5132,14.4922
18.5069,14.4789
18.5020,14.4650
18.4984,14.4508
18.4962,14.4362
18.4955,14.4215
18.4955,12.7715
18.4962,12.7568
18.4984,12.7422
18.5020,12.7280
18.5069,12.7141
18.5132,12.7008
18.5208,12.6882
18.5296,12.6763
18.5394,12.6654
18.5503,12.6555
18.5622,12.6468
18.5748,12.6392
18.5881,12.6329
18.6020,12.6280
18.6162,12.6244
18.6308,12.6222
18.6455,12.6215
18.9455,12.6215
Z" /> 
<path style="fill:#000000; fill-opacity:1.0000; 
stroke:#000000; stroke-width:0.0000; stroke-opacity:1; 
stroke-linecap:round; stroke-linejoin:round;fill-rule:evenodd;"
d="M 20.2302,12.6222
20.2448,12.6244
20.2590,12.6280
20.2729,12.6329
20.2862,12.6392
20.2988,12.6468
20.3107,12.6555
20.3216,12.6654
20.3315,12.6763
20.3402,12.6882
20.3478,12.7008
20.3541,12.7141
20.3590,12.7280
20.3626,12.7422
20.3648,12.7568
20.3655,12.7715
20.3655,14.4215
20.3648,14.4362
20.3626,14.4508
20.3590,14.4650
20.3541,14.4789
20.3478,14.4922
20.3402,14.5048
20.3315,14.5167
20.3216,14.5276
20.3107,14.5374
20.2988,14.5462
20.2862,14.5538
20.2729,14.5601
20.2590,14.5650
20.2448,14.5686
20.2302,14.5708
20.2155,14.5715
19.9155,14.5715
19.9008,14.5708
19.8862,14.5686
19.8720,14.5650
19.8581,14.5601
19.8448,14.5538
19.8322,14.5462
19.8203,14.5374
19.8094,14.5276
19.7995,14.5167
19.7908,14.5048
19.7832,14.4922
19.7769,14.4789
19.7720,14.4650
19.7684,14.4508
19.7662,14.4362
19.7655,14.4215
19.7655,12.7715
19.7662,12.7568
19.7684,12.7422
19.7720,12.7280
19.7769,12.7141
19.7832,12.7008
19.7908,12.6882
19.7995,12.6763
19.8094,12.6654
19.8203,12.6555
19.8322,12.6468
19.8448,12.6392
19.8581,12.6329
19.8720,12.6280
19.8862,12.6244
19.9008,12.6222
19.9155,12.6215
20.2155,12.6215
Z" /> 
<path style="fill:#000000; fill-opacity:1.0000; 
stroke:#000000; stroke-width:0.0000; stroke-opacity:1; 
stroke-linecap:round; stroke-linejoin:round;fill-rule:evenodd;"
d="M 21.5002,12.6222
21.5148,12.6244
21.5290,12.6280
21.5429,12.6329
21.5562,12.6392
21.5688,12.6468
21.5807,12.6555
21.5916,12.6654
21.6014,12.6763
21.6102,12.6882
21.6178,12.7008
21.6241,12.7141
21.6290,12.7280
21.6326,12.7422
21.6348,12.7568
21.6355,12.7715
21.6355,14.4215
21.6348,14.4362
21.6326,14.4508
21.6290,14.4650
21.6241,14.4789
21.6178,14.4922
21.6102,14.5048
21.6014,14.5167
21.5916,14.5276
21.5807,14.5374
21.5688,14.5462
21.5562,14.5538
21.5429,14.5601
21.5290,14.5650
21.5148,14.5686
21.5002,14.5708
21.4855,14.5715
21.1855,14.5715
21.1708,14.5708
21.1562,14.5686
21.1420,14.5650
21.1281,14.5601
21.1148,14.5538
21.1022,14.5462
21.0903,14.5374
21.0794,14.5276
21.0695,14.5167
21.0608,14.5048
21.0532,14.4922
21.0469,14.4789
21.0420,14.4650
21.0384,14.4508
21.0362,14.4362
21.0355,14.4215
21.0355,12.7715
21.0362,12.7568
21.0384,12.7422
21.0420,12.7280
21.0469,12.7141
21.0532,12.7008
21.0608,12.6882
21.0695,12.6763
21.0794,12.6654
21.0903,12.6555
21.1022,12.6468
21.1148,12.6392
21.1281,12.6329
21.1420,12.6280
21.1562,12.6244
21.1708,12.6222
21.1855,12.6215
21.4855,12.6215
Z" /> 
<path style="fill:#000000; fill-opacity:1.0000; 
stroke:#000000; stroke-width:0.0000; stroke-opacity:1; 
stroke-linecap:round; stroke-linejoin:round;fill-rule:evenodd;"
d="M 22.7702,12.6222
22.7848,12.6244
22.7990,12.6280
22.8129,12.6329
22.8262,12.6392
22.8388,12.6468
22.8507,12.6555
22.8616,12.6654
22.8714,12.6763
22.8802,12.6882
22.8878,12.7008
22.8941,12.7141
22.8990,12.7280
22.9026,12.7422
22.9048,12.7568
22.9055,12.7715
22.9055,14.4215
22.9048,14.4362
22.9026,14.4508
22.8990,14.4650
22.8941,14.4789
22.8878,14.4922
22.8802,14.5048
22.8714,14.5167
22.8616,14.5276
22.8507,14.5374
22.8388,14.5462
22.8262,14.5538
22.8129,14.5601
22.7990,14.5650
22.7848,14.5686
22.7702,14.5708
22.7555,14.5715
22.4555,14.5715
22.4408,14.5708
22.4262,14.5686
22.4120,14.5650
22.3981,14.5601
22.3848,14.5538
22.3722,14.5462
22.3603,14.5374
22.3494,14.5276
22.3395,14.5167
22.3308,14.5048
22.3232,14.4922
22.3169,14.4789
22.3120,14.4650
22.3084,14.4508
22.3062,14.4362
22.3055,14.4215
22.3055,12.7715
22.3062,12.7568
22.3084,12.7422
22.3120,12.7280
22.3169,12.7141
22.3232,12.7008
22.3308,12.6882
22.3395,12.6763
22.3494,12.6654
22.3603,12.6555
22.3722,12.6468
22.3848,12.6392
22.3981,12.6329
22.4120,12.6280
22.4262,12.6244
22.4408,12.6222
22.4555,12.6215
22.7555,12.6215
Z" /> 
<path style="fill:#000000; fill-opacity:1.0000; 
stroke:#000000; stroke-width:0.0000; stroke-opacity:1; 
stroke-linecap:round; stroke-linejoin:round;fill-rule:evenodd;"
d="M 24.0402,12.6222
24.0548,12.6244
24.0690,12.6280
24.0829,12.6329
24.0962,12.6392
24.1088,12.6468
24.1207,12.6555
24.1316,12.6654
24.1414,12.6763
24.1502,12.6882
24.1578,12.7008
24.1641,12.7141
24.1690,12.7280
24.1726,12.7422
24.1748,12.7568
24.1755,12.7715
24.1755,14.4215
24.1748,14.4362
24.1726,14.4508
24.1690,14.4650
24.1641,14.4789
24.1578,14.4922
24.1502,14.5048
24.1414,14.5167
24.1316,14.5276
24.1207,14.5374
24.1088,14.5462
24.0962,14.5538
24.0829,14.5601
24.0690,14.5650
24.0548,14.5686
24.0402,14.5708
24.0255,14.5715
23.7255,14.5715
23.7108,14.5708
23.6962,14.5686
23.6820,14.5650
23.6681,14.5601
23.6548,14.5538
23.6422,14.5462
23.6303,14.5374
23.6194,14.5276
23.6095,14.5167
23.6008,14.5048
23.5932,14.4922
23.5869,14.4789
23.5820,14.4650
23.5784,14.4508
23.5762,14.4362
23.5755,14.4215
23.5755,12.7715
23.5762,12.7568
23.5784,12.7422
23.5820,12.7280
23.5869,12.7141
23.5932,12.7008
23.6008,12.6882
23.6095,12.6763
23.6194,12.6654
23.6303,12.6555
23.6422,12.6468
23.6548,12.6392
23.6681,12.6329
23.6820,12.6280
23.6962,12.6244
23.7108,12.6222
23.7255,12.6215
24.0255,12.6215
Z" /> 
<path style="fill:#000000; fill-opacity:1.0000; 
stroke:#000000; stroke-width:0.0000; stroke-opacity:1; 
stroke-linecap:round; stroke-linejoin:round;fill-rule:evenodd;"
d="M 25.3102,12.6222
25.3248,12.6244
25.3390,12.6280
25.3529,12.6329
25.3662,12.6392
25.3788,12.6468
25.3907,12.6555
25.4016,12.6654
25.4114,12.6763
25.4202,12.6882
25.4278,12.7008
25.4341,12.7141
25.4390,12.7280
25.4426,12.7422
25.4448,12.7568
25.4455,12.7715
25.4455,14.4215
25.4448,14.4362
25.4426,14.4508
25.4390,14.4650
25.4341,14.4789
25.4278,14.4922
25.4202,14.5048
25.4114,14.5167
25.4016,14.5276
25.3907,14.5374
25.3788,14.5462
25.3662,14.5538
25.3529,14.5601
25.3390,14.5650
25.3248,14.5686
25.3102,14.5708
25.2955,14.5715
24.9955,14.5715
24.9808,14.5708
24.9662,14.5686
24.9520,14.5650
24.9381,14.5601
24.9248,14.5538
24.9122,14.5462
24.9003,14.5374
24.8894,14.5276
24.8795,14.5167
24.8708,14.5048
24.8632,14.4922
24.8569,14.4789
24.8520,14.4650
24.8484,14.4508
24.8462,14.4362
24.8455,14.4215
24.8455,12.7715
24.8462,12.7568
24.8484,12.7422
24.8520,12.7280
24.8569,12.7141
24.8632,12.7008
24.8708,12.6882
24.8795,12.6763
24.8894,12.6654
24.9003,12.6555
24.9122,12.6468
24.9248,12.6392
24.9381,12.6329
24.9520,12.6280
24.9662,12.6244
24.9808,12.6222
24.9955,12.6215
25.2955,12.6215
Z" /> 
<path style="fill:#000000; fill-opacity:1.0000; 
stroke:#000000; stroke-width:0.0000; stroke-opacity:1; 
stroke-linecap:round; stroke-linejoin:round;fill-rule:evenodd;"
d="M 26.5802,12.6222
26.5948,12.6244
26.6090,12.6280
26.6229,12.6329
26.6362,12.6392
26.6488,12.6468
26.6607,12.6555
26.6716,12.6654
26.6814,12.6763
26.6902,12.6882
26.6978,12.7008
26.7041,12.7141
26.7090,12.7280
26.7126,12.7422
26.7148,12.7568
26.7155,12.7715
26.7155,14.4215
26.7148,14.4362
26.7126,14.4508
26.7090,14.4650
26.7041,14.4789
26.6978,14.4922
26.6902,14.5048
26.6814,14.5167
26.6716,14.5276
26.6607,14.5374
26.6488,14.5462
26.6362,14.5538
26.6229,14.5601
26.6090,14.5650
26.5948,14.5686
26.5802,14.5708
26.5655,14.5715
26.2655,14.5715
26.2508,14.5708
26.2362,14.5686
26.2220,14.5650
26.2081,14.5601
26.1948,14.5538
26.1822,14.5462
26.1703,14.5374
26.1594,14.5276
26.1495,14.5167
26.1408,14.5048
26.1332,14.4922
26.1269,14.4789
26.1220,14.4650
26.1184,14.4508
26.1162,14.4362
26.1155,14.4215
26.1155,12.7715
26.1162,12.7568
26.1184,12.7422
26.1220,12.7280
26.1269,12.7141
26.1332,12.7008
26.1408,12.6882
26.1495,12.6763
26.1594,12.6654
26.1703,12.6555
26.1822,12.6468
26.1948,12.6392
26.2081,12.6329
26.2220,12.6280
26.2362,12.6244
26.2508,12.6222
26.2655,12.6215
26.5655,12.6215
Z" /> 
<path style="fill:#000000; fill-opacity:1.0000; 
stroke:#000000; stroke-width:0.0000; stroke-opacity:1; 
stroke-linecap:round; stroke-linejoin:round;fill-rule:evenodd;"
d="M 26.5802,7.6722
26.5948,7.6744
26.6090,7.6780
26.6229,7.6829
26.6362,7.6892
26.6488,7.6968
26.6607,7.7055
26.6716,7.7154
26.6814,7.7263
26.6902,7.7382
26.6978,7.7508
26.7041,7.7641
26.7090,7.7780
26.7126,7.7922
26.7148,7.8068
26.7155,7.8215
26.7155,9.4715
26.7148,9.4862
26.7126,9.5008
26.7090,9.5150
26.7041,9.5289
26.6978,9.5422
26.6902,9.5548
26.6814,9.5667
26.6716,9.5776
26.6607,9.5874
26.6488,9.5962
26.6362,9.6038
26.6229,9.6101
26.6090,9.6150
26.5948,9.6186
26.5802,9.6208
26.5655,9.6215
26.2655,9.6215
26.2508,9.6208
26.2362,9.6186
26.2220,9.6150
26.2081,9.6101
26.1948,9.6038
26.1822,9.5962
26.1703,9.5874
26.1594,9.5776
26.1495,9.5667
26.1408,9.5548
26.1332,9.5422
26.1269,9.5289
26.1220,9.5150
26.1184,9.5008
26.1162,9.4862
26.1155,9.4715
26.1155,7.8215
26.1162,7.8068
26.1184,7.7922
26.1220,7.7780
26.1269,7.7641
26.1332,7.7508
26.1408,7.7382
26.1495,7.7263
26.1594,7.7154
26.1703,7.7055
26.1822,7.6968
26.1948,7.6892
26.2081,7.6829
26.2220,7.6780
26.2362,7.6744
26.2508,7.6722
26.2655,7.6715
26.5655,7.6715
Z" /> 
<path style="fill:#000000; fill-opacity:1.0000; 
stroke:#000000; stroke-width:0.0000; stroke-opacity:1; 
stroke-linecap:round; stroke-linejoin:round;fill-rule:evenodd;"
d="M 25.3102,7.6722
25.3248,7.6744
25.3390,7.6780
25.3529,7.6829
25.3662,7.6892
25.3788,7.6968
25.3907,7.7055
25.4016,7.7154
25.4114,7.7263
25.4202,7.7382
25.4278,7.7508
25.4341,7.7641
25.4390,7.7780
25.4426,7.7922
25.4448,7.8068
25.4455,7.8215
25.4455,9.4715
25.4448,9.4862
25.4426,9.5008
25.4390,9.5150
25.4341,9.5289
25.4278,9.5422
25.4202,9.5548
25.4114,9.5667
25.4016,9.5776
25.3907,9.5874
25.3788,9.5962
25.3662,9.6038
25.3529,9.6101
25.3390,9.6150
25.3248,9.6186
25.3102,9.6208
25.2955,9.6215
24.9955,9.6215
24.9808,9.6208
24.9662,9.6186
24.9520,9.6150
24.9381,9.6101
24.9248,9.6038
24.9122,9.5962
24.9003,9.5874
24.8894,9.5776
24.8795,9.5667
24.8708,9.5548
24.8632,9.5422
24.8569,9.5289
24.8520,9.5150
24.8484,9.5008
24.8462,9.4862
24.8455,9.4715
24.8455,7.8215
24.8462,7.8068
24.8484,7.7922
24.8520,7.7780
24.8569,7.7641
24.8632,7.7508
24.8708,7.7382
24.8795,7.7263
24.8894,7.7154
24.9003,7.7055
24.9122,7.6968
24.9248,7.6892
24.9381,7.6829
24.9520,7.6780
24.9662,7.6744
24.9808,7.6722
24.9955,7.6715
25.2955,7.6715
Z" /> 
<path style="fill:#000000; fill-opacity:1.0000; 
stroke:#000000; stroke-width:0.0000; stroke-opacity:1; 
stroke-linecap:round; stroke-linejoin:round;fill-rule:evenodd;"
d="M 24.0402,7.6722
24.0548,7.6744
24.0690,7.6780
24.0829,7.6829
24.0962,7.6892
24.1088,7.6968
24.1207,7.7055
24.1316,7.7154
24.1414,7.7263
24.1502,7.7382
24.1578,7.7508
24.1641,7.7641
24.1690,7.7780
24.1726,7.7922
24.1748,7.8068
24.1755,7.8215
24.1755,9.4715
24.1748,9.4862
24.1726,9.5008
24.1690,9.5150
24.1641,9.5289
24.1578,9.5422
24.1502,9.5548
24.1414,9.5667
24.1316,9.5776
24.1207,9.5874
24.1088,9.5962
24.0962,9.6038
24.0829,9.6101
24.0690,9.6150
24.0548,9.6186
24.0402,9.6208
24.0255,9.6215
23.7255,9.6215
23.7108,9.6208
23.6962,9.6186
23.6820,9.6150
23.6681,9.6101
23.6548,9.6038
23.6422,9.5962
23.6303,9.5874
23.6194,9.5776
23.6095,9.5667
23.6008,9.5548
23.5932,9.5422
23.5869,9.5289
23.5820,9.5150
23.5784,9.5008
23.5762,9.4862
23.5755,9.4715
23.5755,7.8215
23.5762,7.8068
23.5784,7.7922
23.5820,7.7780
23.5869,7.7641
23.5932,7.7508
23.6008,7.7382
23.6095,7.7263
23.6194,7.7154
23.6303,7.7055
23.6422,7.6968
23.6548,7.6892
23.6681,7.6829
23.6820,7.6780
23.6962,7.6744
23.7108,7.6722
23.7255,7.6715
24.0255,7.6715
Z" /> 
<path style="fill:#000000; fill-opacity:1.0000; 
stroke:#000000; stroke-width:0.0000; stroke-opacity:1; 
stroke-linecap:round; stroke-linejoin:round;fill-rule:evenodd;"
d="M 22.7702,7.6722
22.7848,7.6744
22.7990,7.6780
22.8129,7.6829
22.8262,7.6892
22.8388,7.6968
22.8507,7.7055
22.8616,7.7154
22.8714,7.7263
22.8802,7.7382
22.8878,7.7508
22.8941,7.7641
22.8990,7.7780
22.9026,7.7922
22.9048,7.8068
22.9055,7.8215
22.9055,9.4715
22.9048,9.4862
22.9026,9.5008
22.8990,9.5150
22.8941,9.5289
22.8878,9.5422
22.8802,9.5548
22.8714,9.5667
22.8616,9.5776
22.8507,9.5874
22.8388,9.5962
22.8262,9.6038
22.8129,9.6101
22.7990,9.6150
22.7848,9.6186
22.7702,9.6208
22.7555,9.6215
22.4555,9.6215
22.4408,9.6208
22.4262,9.6186
22.4120,9.6150
22.3981,9.6101
22.3848,9.6038
22.3722,9.5962
22.3603,9.5874
22.3494,9.5776
22.3395,9.5667
22.3308,9.5548
22.3232,9.5422
22.3169,9.5289
22.3120,9.5150
22.3084,9.5008
22.3062,9.4862
22.3055,9.4715
22.3055,7.8215
22.3062,7.8068
22.3084,7.7922
22.3120,7.7780
22.3169,7.7641
22.3232,7.7508
22.3308,7.7382
22.3395,7.7263
22.3494,7.7154
22.3603,7.7055
22.3722,7.6968
22.3848,7.6892
22.3981,7.6829
22.4120,7.6780
22.4262,7.6744
22.4408,7.6722
22.4555,7.6715
22.7555,7.6715
Z" /> 
<path style="fill:#000000; fill-opacity:1.0000; 
stroke:#000000; stroke-width:0.0000; stroke-opacity:1; 
stroke-linecap:round; stroke-linejoin:round;fill-rule:evenodd;"
d="M 21.5002,7.6722
21.5148,7.6744
21.5290,7.6780
21.5429,7.6829
21.5562,7.6892
21.5688,7.6968
21.5807,7.7055
21.5916,7.7154
21.6014,7.7263
21.6102,7.7382
21.6178,7.7508
21.6241,7.7641
21.6290,7.7780
21.6326,7.7922
21.6348,7.8068
21.6355,7.8215
21.6355,9.4715
21.6348,9.4862
21.6326,9.5008
21.6290,9.5150
21.6241,9.5289
21.6178,9.5422
21.6102,9.5548
21.6014,9.5667
21.5916,9.5776
21.5807,9.5874
21.5688,9.5962
21.5562,9.6038
21.5429,9.6101
21.5290,9.6150
21.5148,9.6186
21.5002,9.6208
21.4855,9.6215
21.1855,9.6215
21.1708,9.6208
21.1562,9.6186
21.1420,9.6150
21.1281,9.6101
21.1148,9.6038
21.1022,9.5962
21.0903,9.5874
21.0794,9.5776
21.0695,9.5667
21.0608,9.5548
21.0532,9.5422
21.0469,9.5289
21.0420,9.5150
21.0384,9.5008
21.0362,9.4862
21.0355,9.4715
21.0355,7.8215
21.0362,7.8068
21.0384,7.7922
21.0420,7.7780
21.0469,7.7641
21.0532,7.7508
21.0608,7.7382
21.0695,7.7263
21.0794,7.7154
21.0903,7.7055
21.1022,7.6968
21.1148,7.6892
21.1281,7.6829
21.1420,7.6780
21.1562,7.6744
21.1708,7.6722
21.1855,7.6715
21.4855,7.6715
Z" /> 
<path style="fill:#000000; fill-opacity:1.0000; 
stroke:#000000; stroke-width:0.0000; stroke-opacity:1; 
stroke-linecap:round; stroke-linejoin:round;fill-rule:evenodd;"
d="M 20.2302,7.6722
20.2448,7.6744
20.2590,7.6780
20.2729,7.6829
20.2862,7.6892
20.2988,7.6968
20.3107,7.7055
20.3216,7.7154
20.3315,7.7263
20.3402,7.7382
20.3478,7.7508
20.3541,7.7641
20.3590,7.7780
20.3626,7.7922
20.3648,7.8068
20.3655,7.8215
20.3655,9.4715
20.3648,9.4862
20.3626,9.5008
20.3590,9.5150
20.3541,9.5289
20.3478,9.5422
20.3402,9.5548
20.3315,9.5667
20.3216,9.5776
20.3107,9.5874
20.2988,9.5962
20.2862,9.6038
20.2729,9.6101
20.2590,9.6150
20.2448,9.6186
20.2302,9.6208
20.2155,9.6215
19.9155,9.6215
19.9008,9.6208
19.8862,9.6186
19.8720,9.6150
19.8581,9.6101
19.8448,9.6038
19.8322,9.5962
19.8203,9.5874
19.8094,9.5776
19.7995,9.5667
19.7908,9.5548
19.7832,9.5422
19.7769,9.5289
19.7720,9.5150
19.7684,9.5008
19.7662,9.4862
19.7655,9.4715
19.7655,7.8215
19.7662,7.8068
19.7684,7.7922
19.7720,7.7780
19.7769,7.7641
19.7832,7.7508
19.7908,7.7382
19.7995,7.7263
19.8094,7.7154
19.8203,7.7055
19.8322,7.6968
19.8448,7.6892
19.8581,7.6829
19.8720,7.6780
19.8862,7.6744
19.9008,7.6722
19.9155,7.6715
20.2155,7.6715
Z" /> 
<path style="fill:#000000; fill-opacity:1.0000; 
stroke:#000000; stroke-width:0.0000; stroke-opacity:1; 
stroke-linecap:round; stroke-linejoin:round;fill-rule:evenodd;"
d="M 18.9602,7.6722
18.9748,7.6744
18.9890,7.6780
19.0029,7.6829
19.0162,7.6892
19.0288,7.6968
19.0407,7.7055
19.0516,7.7154
19.0615,7.7263
19.0702,7.7382
19.0778,7.7508
19.0841,7.7641
19.0890,7.7780
19.0926,7.7922
19.0948,7.8068
19.0955,7.8215
19.0955,9.4715
19.0948,9.4862
19.0926,9.5008
19.0890,9.5150
19.0841,9.5289
19.0778,9.5422
19.0702,9.5548
19.0615,9.5667
19.0516,9.5776
19.0407,9.5874
19.0288,9.5962
19.0162,9.6038
19.0029,9.6101
18.9890,9.6150
18.9748,9.6186
18.9602,9.6208
18.9455,9.6215
18.6455,9.6215
18.6308,9.6208
18.6162,9.6186
18.6020,9.6150
18.5881,9.6101
18.5748,9.6038
18.5622,9.5962
18.5503,9.5874
18.5394,9.5776
18.5296,9.5667
18.5208,9.5548
18.5132,9.5422
18.5069,9.5289
18.5020,9.5150
18.4984,9.5008
18.4962,9.4862
18.4955,9.4715
18.4955,7.8215
18.4962,7.8068
18.4984,7.7922
18.5020,7.7780
18.5069,7.7641
18.5132,7.7508
18.5208,7.7382
18.5296,7.7263
18.5394,7.7154
18.5503,7.7055
18.5622,7.6968
18.5748,7.6892
18.5881,7.6829
18.6020,7.6780
18.6162,7.6744
18.6308,7.6722
18.6455,7.6715
18.9455,7.6715
Z" /> 
<path style="fill:#000000; fill-opacity:1.0000; 
stroke:#000000; stroke-width:0.0000; stroke-opacity:1; 
stroke-linecap:round; stroke-linejoin:round;fill-rule:evenodd;"
d="M 19.5323,0.6000
19.5729,0.6271
19.6000,0.6677
19.6095,0.7155
19.6095,1.7155
19.6000,1.7633
19.5729,1.8039
19.5323,1.8310
19.4845,1.8405
16.7345,1.8405
16.6867,1.8310
16.6461,1.8039
16.6190,1.7633
16.6095,1.7155
16.6095,0.9655
16.9845,0.5905
19.4845,0.5905
Z" /> 
<path style="fill:#000000; fill-opacity:1.0000; 
stroke:#000000; stroke-width:0.0000; stroke-opacity:1; 
stroke-linecap:round; stroke-linejoin:round;fill-rule:evenodd;"
d="M 19.4967,3.1311
19.5089,3.1329
19.5208,3.1359
19.5323,3.1400
19.5434,3.1453
19.5540,3.1516
19.5638,3.1589
19.5729,3.1671
19.5811,3.1762
19.5884,3.1860
19.5947,3.1966
19.6000,3.2077
19.6041,3.2192
19.6071,3.2311
19.6089,3.2432
19.6095,3.2555
19.6095,4.2555
19.6089,4.2677
19.6071,4.2799
19.6041,4.2918
19.6000,4.3033
19.5947,4.3144
19.5884,4.3249
19.5811,4.3348
19.5729,4.3439
19.5638,4.3521
19.5540,4.3594
19.5434,4.3657
19.5323,4.3710
19.5208,4.3751
19.5089,4.3781
19.4967,4.3799
19.4845,4.3805
16.7345,4.3805
16.7222,4.3799
16.7101,4.3781
16.6982,4.3751
16.6867,4.3710
16.6756,4.3657
16.6651,4.3594
16.6552,4.3521
16.6461,4.3439
16.6379,4.3348
16.6306,4.3249
16.6243,4.3144
16.6190,4.3033
16.6149,4.2918
16.6119,4.2799
16.6101,4.2677
16.6095,4.2555
16.6095,3.2555
16.6101,3.2432
16.6119,3.2311
16.6149,3.2192
16.6190,3.2077
16.6243,3.1966
16.6306,3.1860
16.6379,3.1762
16.6461,3.1671
16.6552,3.1589
16.6651,3.1516
16.6756,3.1453
16.6867,3.1400
16.6982,3.1359
16.7101,3.1329
16.7222,3.1311
16.7345,3.1305
19.4845,3.1305
Z" /> 
<path style="fill:#000000; fill-opacity:1.0000; 
stroke:#000000; stroke-width:0.0000; stroke-opacity:1; 
stroke-linecap:round; stroke-linejoin:round;fill-rule:evenodd;"
d="M 19.4967,5.6711
19.5089,5.6729
19.5208,5.6759
19.5323,5.6800
19.5434,5.6853
19.5540,5.6916
19.5638,5.6989
19.5729,5.7071
19.5811,5.7162
19.5884,5.7260
19.5947,5.7366
19.6000,5.7477
19.6041,5.7592
19.6071,5.7711
19.6089,5.7832
19.6095,5.7955
19.6095,6.7955
19.6089,6.8077
19.6071,6.8199
19.6041,6.8318
19.6000,6.8433
19.5947,6.8544
19.5884,6.8649
19.5811,6.8748
19.5729,6.8839
19.5638,6.8921
19.5540,6.8994
19.5434,6.9057
19.5323,6.9110
19.5208,6.9151
19.5089,6.9181
19.4967,6.9199
19.4845,6.9205
16.7345,6.9205
16.7222,6.9199
16.7101,6.9181
16.6982,6.9151
16.6867,6.9110
16.6756,6.9057
16.6651,6.8994
16.6552,6.8921
16.6461,6.8839
16.6379,6.8748
16.6306,6.8649
16.6243,6.8544
16.6190,6.8433
16.6149,6.8318
16.6119,6.8199
16.6101,6.8077
16.6095,6.7955
16.6095,5.7955
16.6101,5.7832
16.6119,5.7711
16.6149,5.7592
16.6190,5.7477
16.6243,5.7366
16.6306,5.7260
16.6379,5.7162
16.6461,5.7071
16.6552,5.6989
16.6651,5.6916
16.6756,5.6853
16.6867,5.6800
16.6982,5.6759
16.7101,5.6729
16.7222,5.6711
16.7345,5.6705
19.4845,5.6705
Z" /> 
<path style="fill:#000000; fill-opacity:1.0000; 
stroke:#000000; stroke-width:0.0000; stroke-opacity:1; 
stroke-linecap:round; stroke-linejoin:round;fill-rule:evenodd;"
d="M 26.9967,5.6711
27.0089,5.6729
27.0208,5.6759
27.0323,5.6800
27.0434,5.6853
27.0540,5.6916
27.0638,5.6989
27.0729,5.7071
27.0811,5.7162
27.0884,5.7260
27.0947,5.7366
27.1000,5.7477
27.1041,5.7592
27.1071,5.7711
27.1089,5.7832
27.1095,5.7955
27.1095,6.7955
27.1089,6.8077
27.1071,6.8199
27.1041,6.8318
27.1000,6.8433
27.0947,6.8544
27.0884,6.8649
27.0811,6.8748
27.0729,6.8839
27.0638,6.8921
27.0540,6.8994
27.0434,6.9057
27.0323,6.9110
27.0208,6.9151
27.0089,6.9181
26.9967,6.9199
26.9845,6.9205
24.2345,6.9205
24.2222,6.9199
24.2101,6.9181
24.1982,6.9151
24.1867,6.9110
24.1756,6.9057
24.1650,6.8994
24.1552,6.8921
24.1461,6.8839
24.1379,6.8748
24.1306,6.8649
24.1243,6.8544
24.1190,6.8433
24.1149,6.8318
24.1119,6.8199
24.1101,6.8077
24.1095,6.7955
24.1095,5.7955
24.1101,5.7832
24.1119,5.7711
24.1149,5.7592
24.1190,5.7477
24.1243,5.7366
24.1306,5.7260
24.1379,5.7162
24.1461,5.7071
24.1552,5.6989
24.1650,5.6916
24.1756,5.6853
24.1867,5.6800
24.1982,5.6759
24.2101,5.6729
24.2222,5.6711
24.2345,5.6705
26.9845,5.6705
Z" /> 
<path style="fill:#000000; fill-opacity:1.0000; 
stroke:#000000; stroke-width:0.0000; stroke-opacity:1; 
stroke-linecap:round; stroke-linejoin:round;fill-rule:evenodd;"
d="M 26.9967,3.1311
27.0089,3.1329
27.0208,3.1359
27.0323,3.1400
27.0434,3.1453
27.0540,3.1516
27.0638,3.1589
27.0729,3.1671
27.0811,3.1762
27.0884,3.1860
27.0947,3.1966
27.1000,3.2077
27.1041,3.2192
27.1071,3.2311
27.1089,3.2432
27.1095,3.2555
27.1095,4.2555
27.1089,4.2677
27.1071,4.2799
27.1041,4.2918
27.1000,4.3033
27.0947,4.3144
27.0884,4.3249
27.0811,4.3348
27.0729,4.3439
27.0638,4.3521
27.0540,4.3594
27.0434,4.3657
27.0323,4.3710
27.0208,4.3751
27.0089,4.3781
26.9967,4.3799
26.9845,4.3805
24.2345,4.3805
24.2222,4.3799
24.2101,4.3781
24.1982,4.3751
24.1867,4.3710
24.1756,4.3657
24.1650,4.3594
24.1552,4.3521
24.1461,4.3439
24.1379,4.3348
24.1306,4.3249
24.1243,4.3144
24.1190,4.3033
24.1149,4.2918
24.1119,4.2799
24.1101,4.2677
24.1095,4.2555
24.1095,3.2555
24.1101,3.2432
24.1119,3.2311
24.1149,3.2192
24.1190,3.2077
24.1243,3.1966
24.1306,3.1860
24.1379,3.1762
24.1461,3.1671
24.1552,3.1589
24.1650,3.1516
24.1756,3.1453
24.1867,3.1400
24.1982,3.1359
24.2101,3.1329
24.2222,3.1311
24.2345,3.1305
26.9845,3.1305
Z" /> 
<path style="fill:#000000; fill-opacity:1.0000; 
stroke:#000000; stroke-width:0.0000; stroke-opacity:1; 
stroke-linecap:round; stroke-linejoin:round;fill-rule:evenodd;"
d="M 26.9967,0.5911
27.0089,0.5929
27.0208,0.5959
27.0323,0.6000
27.0434,0.6053
27.0540,0.6116
27.0638,0.6189
27.0729,0.6271
27.0811,0.6362
27.0884,0.6461
27.0947,0.6566
27.1000,0.6677
27.1041,0.6792
27.1071,0.6911
27.1089,0.7032
27.1095,0.7155
27.1095,1.7155
27.1089,1.7277
27.1071,1.7399
27.1041,1.7518
27.1000,1.7633
27.0947,1.7744
27.0884,1.7849
27.0811,1.7948
27.0729,1.8039
27.0638,1.8121
27.0540,1.8194
27.0434,1.8257
27.0323,1.8310
27.0208,1.8351
27.0089,1.8381
26.9967,1.8399
26.9845,1.8405
24.2345,1.8405
24.2222,1.8399
24.2101,1.8381
24.1982,1.8351
24.1867,1.8310
24.1756,1.8257
24.1650,1.8194
24.1552,1.8121
24.1461,1.8039
24.1379,1.7948
24.1306,1.7849
24.1243,1.7744
24.1190,1.7633
24.1149,1.7518
24.1119,1.7399
24.1101,1.7277
24.1095,1.7155
24.1095,0.7155
24.1101,0.7032
24.1119,0.6911
24.1149,0.6792
24.1190,0.6677
24.1243,0.6566
24.1306,0.6461
24.1379,0.6362
24.1461,0.6271
24.1552,0.6189
24.1650,0.6116
24.1756,0.6053
24.1867,0.6000
24.1982,0.5959
24.2101,0.5929
24.2222,0.5911
24.2345,0.5905
26.9845,0.5905
Z" /> 
<path style="fill:#000000; fill-opacity:1.0000; 
stroke:#000000; stroke-width:0.0000; stroke-opacity:1; 
stroke-linecap:round; stroke-linejoin:round;fill-rule:evenodd;"
d="M 7.9275,10.9595
7.5275,10.9595
7.5275,10.5095
7.9275,10.5095
Z" /> 
<path style="fill:#000000; fill-opacity:1.0000; 
stroke:#000000; stroke-width:0.0000; stroke-opacity:1; 
stroke-linecap:round; stroke-linejoin:round;fill-rule:evenodd;"
d="M 8.7275,10.9595
8.3275,10.9595
8.3275,10.5095
8.7275,10.5095
Z" /> 
<path style="fill:#000000; fill-opacity:1.0000; 
stroke:#000000; stroke-width:0.0000; stroke-opacity:1; 
stroke-linecap:round; stroke-linejoin:round;fill-rule:evenodd;"
d="M 8.3775,9.8095
7.8775,9.8095
7.8775,9.3595
8.3775,9.3595
Z" /> 
<circle cx="2.7657" cy="18.8222" r="1.6000" /> 
<g >
</g>
<g >
</g>
<g >
</g>
</g>
<g style="fill:#000000; fill-opacity:1.0000; 
stroke:#000000; stroke-width:0.0000; stroke-opacity:1; 
stroke-linecap:round; stroke-linejoin:round;">
</g>
<g style="fill:#000000; fill-opacity:1.0000; 
stroke:#000000; stroke-width:0.2540; stroke-opacity:1; 
stroke-linecap:round; stroke-linejoin:round;">
</g>
<g style="fill:#000000; fill-opacity:0.0; 
stroke:#000000; stroke-width:0.2540; stroke-opacity:1; 
stroke-linecap:round; stroke-linejoin:round;">
<path d="M27.5705 16.2809
L24.5105 16.2809
" />
<path d="M24.5105 16.2809
L21.0815 20.9995
" />
<path d="M21.0815 20.9995
L-0.0005 20.9995
" />
<path d="M-0.0005 20.9995
L-0.0005 -0.0005
" />
<path d="M-0.0005 -0.0005
L27.5705 -0.0005
" />
<path d="M27.5705 -0.0005
L27.5705 16.2809
" />
<g >
</g>
<g >
</g>
<g >
</g>
</g> 
</svg>
